{"glyphs":{"0":{"ha":869,"x_min":42,"x_max":831,"o":"m 483 14 q 490 11 492 13 q 488 12 490 11 q 483 14 486 13 m 399 76 q 414 76 406 76 q 435 75 424 76 l 471 75 q 475 57 472 64 q 397 71 443 57 q 399 76 399 74 m 544 90 q 549 89 546 89 q 540 82 549 85 q 494 58 511 61 q 490 57 496 57 q 482 74 483 54 q 517 82 501 79 q 542 88 532 85 l 544 90 m 717 124 q 722 122 722 124 q 719 119 722 121 q 715 118 717 118 q 717 124 715 121 m 344 182 q 369 129 360 143 q 354 103 372 114 q 353 104 349 103 q 319 139 319 126 q 344 182 319 142 m 440 215 q 442 199 461 210 q 442 204 442 200 q 440 215 442 208 m 499 203 q 500 217 497 217 q 499 203 503 217 m 650 239 q 651 213 667 228 q 650 239 646 208 m 422 239 q 428 238 426 239 l 428 231 q 422 239 414 236 m 439 236 q 454 246 439 246 q 458 225 468 243 q 439 236 439 225 m 479 246 q 489 228 496 251 q 474 242 474 235 q 479 246 474 244 m 507 250 q 515 246 515 251 q 506 232 515 238 q 507 250 496 250 m 349 254 q 347 249 347 251 q 329 228 346 247 q 317 207 317 213 q 319 201 317 204 q 339 204 331 193 q 339 221 343 210 q 354 242 349 236 q 365 242 365 260 q 361 211 367 225 q 346 197 350 200 q 328 167 338 183 q 307 144 319 151 q 282 183 293 167 q 264 210 271 199 q 297 226 285 222 q 326 242 314 236 q 349 254 339 249 m 596 278 q 595 274 597 275 q 596 278 593 274 m 432 279 q 452 276 449 281 q 458 257 456 272 q 446 254 446 254 q 371 225 404 247 q 372 263 367 257 q 432 279 381 274 m 465 281 q 475 264 476 269 l 474 260 q 469 257 476 258 q 465 281 467 274 m 483 282 q 576 271 539 282 q 586 265 579 269 q 607 253 593 260 q 644 242 626 240 q 638 193 643 206 q 617 166 626 178 q 601 147 608 154 q 588 133 593 138 q 581 131 583 128 q 567 150 567 149 q 578 221 568 192 l 574 217 q 518 138 546 150 q 519 135 519 136 q 531 125 524 125 q 561 149 542 125 q 566 140 564 143 q 569 135 568 138 q 567 111 581 119 q 488 81 522 81 q 474 115 483 81 q 472 94 472 103 q 472 81 471 86 q 393 82 397 81 q 382 83 388 83 q 371 85 376 83 q 381 119 361 119 q 394 114 388 119 q 413 111 408 104 q 364 182 389 157 q 357 194 356 194 q 368 204 365 203 q 408 165 378 182 q 471 147 438 147 q 515 158 493 147 q 569 224 551 178 q 571 233 571 228 q 538 258 564 247 q 527 261 535 260 q 508 264 519 263 q 483 282 493 264 m 269 301 q 261 215 282 228 q 254 229 258 222 q 246 243 250 236 q 238 272 235 261 q 255 289 247 282 q 269 301 263 296 m 372 319 q 426 293 406 297 l 428 292 q 433 285 431 288 q 396 278 411 281 q 369 272 381 275 q 370 290 369 278 q 372 319 371 301 m 222 325 q 260 310 260 321 q 232 282 260 303 q 222 325 221 317 m 551 328 q 575 300 564 319 q 581 290 578 294 q 586 278 583 285 q 586 272 585 272 q 485 289 554 288 q 497 294 488 290 q 521 306 506 299 q 551 328 544 317 m 656 329 q 685 318 678 319 q 667 265 679 279 q 660 260 663 263 q 654 256 657 258 q 654 299 654 281 q 656 329 654 318 m 351 329 q 322 297 358 329 q 335 283 326 283 q 349 294 342 283 q 353 310 351 308 q 360 319 357 315 q 365 325 363 322 q 361 271 363 289 q 322 246 340 257 q 285 226 303 235 q 276 304 276 232 q 351 329 326 318 m 568 332 q 650 332 629 324 q 646 250 650 289 q 596 264 619 247 q 606 278 601 269 q 568 332 586 290 m 379 332 q 399 327 386 331 q 428 317 411 324 q 464 298 461 304 q 467 292 467 292 q 460 290 467 288 q 419 318 428 306 q 379 332 396 328 m 535 335 q 543 333 539 333 q 551 332 547 333 q 535 325 551 332 q 526 322 531 324 q 518 319 522 321 q 494 306 504 313 q 478 294 485 300 q 476 301 476 299 q 475 307 476 304 q 485 313 481 310 q 493 318 489 315 q 535 335 515 332 m 525 353 q 544 350 539 356 q 550 342 550 344 q 500 326 519 333 q 469 314 481 319 q 479 342 465 342 q 490 340 483 342 q 499 338 496 338 q 514 344 506 338 q 525 353 522 351 m 686 357 q 685 331 692 331 q 665 340 665 333 q 686 357 665 338 m 267 400 q 269 314 279 344 q 219 357 219 336 q 222 371 219 364 q 224 382 224 378 q 248 393 238 389 q 267 400 258 397 m 461 401 q 465 343 465 364 q 461 401 461 378 m 657 417 q 694 394 693 397 q 696 385 696 392 q 654 344 696 357 q 655 390 654 372 q 657 417 656 407 m 483 419 q 511 417 488 421 q 481 417 488 417 q 483 419 474 418 m 425 419 q 439 419 432 422 q 444 382 447 418 q 443 349 443 360 q 443 336 443 338 q 446 332 444 333 q 449 329 447 331 l 453 329 q 463 333 461 332 q 456 310 463 310 q 442 315 451 310 q 378 338 396 338 q 376 347 376 343 q 375 353 375 350 q 358 339 360 342 q 279 311 307 317 q 279 404 275 365 q 307 404 292 403 q 337 408 322 406 q 364 414 351 411 q 383 417 376 417 q 375 390 382 408 q 369 357 368 371 q 383 383 376 371 q 396 408 390 396 q 394 404 396 406 q 403 358 383 383 q 421 367 417 340 q 421 375 421 368 q 419 397 421 382 q 425 419 418 418 m 203 419 q 207 403 206 410 q 210 389 208 396 q 205 399 207 394 q 200 407 203 404 l 193 407 q 194 399 194 403 q 173 401 181 399 q 164 404 165 403 q 174 408 164 406 q 190 414 183 411 q 203 419 197 417 m 213 421 q 261 408 251 408 q 246 400 249 401 q 228 394 235 396 q 222 392 222 392 q 213 421 214 392 m 646 424 q 649 336 656 406 q 563 340 617 325 q 554 372 561 340 q 540 397 547 388 q 528 413 533 407 q 646 424 597 404 m 176 433 q 185 429 174 433 q 186 428 186 428 q 189 426 188 428 q 156 413 189 422 q 151 418 153 415 q 147 422 149 421 q 164 428 157 425 q 176 433 171 431 m 682 431 q 711 443 708 446 q 709 438 713 442 q 700 433 706 435 q 698 420 699 426 q 696 407 697 414 q 664 429 668 422 q 675 431 671 431 q 682 431 679 431 m 358 442 q 378 435 369 438 q 393 429 386 432 q 396 427 394 428 q 399 425 397 426 q 397 422 397 424 q 396 421 397 422 q 358 442 371 431 m 550 443 q 571 438 558 443 q 592 432 583 432 q 619 434 611 433 q 626 435 628 435 q 626 442 624 442 q 650 436 642 436 l 650 431 q 529 418 588 407 q 526 422 526 422 q 538 431 538 431 q 551 437 547 435 q 556 439 556 439 q 550 443 556 442 m 704 450 q 736 447 728 450 q 704 444 733 444 l 704 450 m 543 451 l 543 446 q 530 429 539 439 q 519 419 521 419 q 543 451 525 433 m 696 454 q 697 447 701 456 q 661 433 689 433 l 658 433 q 673 442 658 436 q 696 454 688 449 m 331 488 q 333 485 333 485 q 331 481 333 483 l 331 488 m 621 489 q 619 478 622 483 q 613 473 619 478 q 606 467 606 468 q 618 467 607 465 q 632 467 629 469 q 627 463 635 465 q 610 463 619 461 q 582 464 585 465 q 575 463 576 464 q 615 451 575 460 q 567 453 619 453 q 561 463 563 461 q 531 478 550 474 q 553 476 547 478 q 603 478 582 471 q 613 483 608 481 q 621 489 618 486 m 300 493 q 310 485 310 489 q 310 483 308 485 q 308 482 310 482 q 299 483 304 482 q 300 493 300 488 m 718 494 q 722 494 719 494 q 725 490 725 493 q 724 486 725 486 q 756 478 753 486 l 749 478 q 739 479 744 478 l 726 479 q 708 453 724 456 q 718 494 718 481 m 375 497 q 400 489 392 490 q 400 482 401 483 q 375 497 397 482 m 554 511 q 559 501 557 506 q 564 493 561 497 q 544 501 544 497 q 554 511 544 506 m 613 515 q 621 510 617 514 q 610 500 621 507 q 606 501 608 501 q 608 508 606 503 q 613 515 611 514 m 185 538 q 192 509 189 525 q 197 478 194 493 q 202 451 200 464 q 204 433 204 439 q 194 434 199 433 q 185 436 190 435 q 182 463 188 450 q 175 483 181 469 q 173 500 174 493 q 172 513 172 507 q 151 526 161 521 q 171 532 163 529 q 185 538 179 535 m 424 564 q 429 564 425 564 q 440 563 433 564 q 453 443 450 483 q 454 432 454 436 q 454 426 454 428 q 442 424 451 422 q 429 425 435 425 q 421 425 424 425 q 432 475 440 442 q 417 497 418 490 q 404 499 410 499 q 394 500 399 500 q 283 501 339 514 q 275 510 281 510 q 251 476 253 510 q 281 456 265 467 q 318 446 296 444 l 317 451 q 303 457 303 457 q 274 482 274 478 q 276 485 274 485 q 283 483 279 485 q 292 477 286 481 q 310 471 299 474 q 339 468 321 468 q 367 467 354 467 q 392 469 381 468 q 378 459 385 464 q 368 451 372 454 q 349 456 353 454 q 340 446 342 451 q 297 436 326 439 q 304 433 301 435 q 310 431 307 432 q 351 425 342 425 q 369 426 367 425 q 308 408 342 408 q 276 412 292 408 q 243 418 261 415 q 211 429 215 422 q 206 471 206 453 q 203 483 204 474 q 199 508 201 493 q 194 542 192 529 q 322 555 265 549 q 424 564 379 561 m 199 569 q 229 551 219 558 q 214 549 219 550 q 206 549 208 549 q 190 561 190 546 q 199 569 190 569 m 611 583 q 652 571 631 586 q 679 540 674 556 q 682 526 682 529 q 664 507 682 507 q 649 514 656 507 q 592 529 626 529 q 492 489 515 529 q 478 440 479 467 q 490 436 486 438 q 489 432 489 433 q 488 429 489 431 q 472 424 481 422 q 461 436 464 425 q 447 567 444 535 q 481 569 467 568 q 506 572 496 571 q 592 567 567 579 q 611 583 596 581 m 333 588 q 385 579 371 581 q 436 583 411 575 l 436 569 q 335 561 378 564 q 333 575 333 569 q 333 588 333 582 m 292 593 q 312 589 303 590 q 328 586 321 588 l 328 567 q 292 593 297 581 m 594 610 q 609 610 601 611 q 626 608 617 610 q 640 592 638 607 q 618 600 624 596 q 586 595 606 603 q 558 588 567 588 q 574 603 567 597 q 594 610 581 608 m 129 610 q 132 608 131 608 q 135 606 133 607 q 131 600 131 603 l 126 604 q 129 610 129 610 m 101 613 q 110 613 103 614 q 103 606 111 613 q 96 596 96 599 q 106 593 96 593 q 104 581 104 585 q 104 575 104 576 q 100 538 100 525 q 119 481 100 519 q 153 440 139 442 q 155 450 154 447 q 156 453 156 453 q 136 468 144 464 q 115 508 126 482 q 114 517 114 513 q 135 519 124 508 q 133 507 138 517 q 144 493 140 496 q 140 482 140 486 q 149 473 140 478 q 160 467 157 468 q 164 453 163 460 q 167 439 165 446 q 140 429 143 429 q 83 583 83 554 q 101 613 83 608 m 458 615 q 463 613 463 615 q 443 600 463 608 q 458 615 443 617 m 332 617 q 369 615 353 615 q 397 614 386 614 q 435 601 436 611 q 407 589 432 589 q 364 593 390 589 q 333 597 336 597 q 332 608 332 604 q 332 617 332 614 m 172 618 l 178 617 q 186 561 186 556 q 175 546 186 546 q 146 560 165 546 q 138 566 142 563 q 128 575 133 569 q 125 568 122 571 q 129 558 128 560 q 140 539 140 539 l 158 539 q 114 526 129 529 q 124 594 122 593 q 149 576 144 581 q 144 593 147 585 q 142 603 142 601 q 172 618 142 608 m 685 626 q 696 624 696 624 q 683 618 683 615 q 692 613 683 614 q 699 613 697 611 q 700 617 700 615 q 700 618 700 618 l 703 615 q 669 586 683 607 q 664 585 671 585 l 664 590 q 685 626 682 615 m 508 626 q 522 627 513 628 q 544 625 531 626 l 544 585 q 453 572 483 576 q 466 589 458 579 q 479 601 474 599 q 500 606 493 604 q 507 610 507 607 q 502 611 507 610 q 491 613 497 613 q 480 615 485 614 q 475 617 475 617 q 486 621 475 618 q 503 625 497 624 q 508 626 508 626 m 760 638 q 785 614 785 643 q 778 586 785 600 q 769 606 772 597 q 763 621 765 614 q 738 599 738 610 q 754 592 738 592 q 744 584 747 586 q 738 581 740 582 q 751 568 747 567 q 754 550 754 560 q 735 488 754 514 l 732 489 q 734 504 733 499 q 735 513 735 510 q 736 547 742 539 q 704 553 735 553 q 707 533 711 533 q 697 558 697 554 l 728 558 q 733 561 733 561 q 693 574 718 574 l 692 579 q 733 575 714 581 q 725 585 729 581 q 760 638 738 633 m 229 639 q 239 558 239 592 q 231 563 236 558 q 218 572 225 567 q 205 581 211 576 q 194 585 199 585 q 188 582 190 585 q 185 606 186 596 q 182 624 183 617 q 229 639 219 638 m 56 644 q 54 639 56 640 l 56 644 m 143 646 q 167 629 167 631 q 160 624 167 626 q 144 624 147 619 q 143 646 143 625 m 267 650 q 301 650 279 651 q 317 647 315 647 q 311 646 317 647 q 299 642 306 644 q 288 638 293 640 q 283 635 283 636 l 285 633 q 304 634 292 631 q 322 638 317 638 q 325 628 322 636 q 313 628 322 628 q 286 626 304 628 l 285 619 l 314 619 q 326 597 326 617 q 308 600 318 597 q 290 603 297 603 q 268 592 268 601 q 315 558 268 585 q 281 556 306 558 q 244 554 257 554 q 240 640 242 613 q 267 650 261 650 m 374 653 q 425 651 413 656 q 432 647 429 650 q 394 643 408 643 q 386 636 390 640 q 408 634 397 635 q 425 633 418 633 q 432 622 432 626 q 403 622 417 622 q 375 624 389 622 q 331 633 331 626 q 351 647 331 639 q 374 653 361 653 m 551 663 q 586 663 574 663 q 607 661 600 663 q 596 626 611 642 q 575 635 585 632 q 553 600 563 610 q 551 629 553 629 q 594 646 574 642 q 581 649 586 649 q 567 647 575 649 q 557 644 560 644 q 551 663 550 644 m 479 665 q 508 666 493 667 q 543 663 524 665 l 543 638 q 499 632 519 638 q 472 627 482 629 q 456 624 461 625 q 442 626 442 622 q 454 636 442 633 q 478 638 468 638 q 494 639 488 639 q 504 650 503 647 q 439 642 465 650 q 442 654 442 656 q 479 665 449 664 m 713 667 q 717 644 715 653 q 721 632 719 636 q 717 644 719 636 q 713 667 715 653 m 644 674 q 651 649 647 664 q 658 615 654 635 q 660 601 660 608 q 658 607 660 604 q 650 646 653 629 q 644 674 647 663 m 660 681 q 683 679 674 679 q 701 678 694 679 l 690 678 q 669 679 678 679 q 660 681 663 679 m 150 683 l 168 683 q 172 647 171 660 q 175 632 174 635 q 138 672 138 658 q 150 683 138 681 m 732 689 q 735 688 733 688 q 738 686 736 688 q 726 682 735 685 q 714 678 718 679 q 732 689 729 689 m 438 697 l 449 697 q 442 683 446 690 q 438 679 439 676 q 438 697 435 682 m 478 699 l 543 699 l 543 675 q 487 675 511 676 q 446 668 463 674 q 456 688 450 678 q 478 699 461 697 m 569 700 q 558 685 563 690 q 550 678 553 681 q 552 697 550 694 q 569 700 554 700 m 139 700 q 144 697 142 699 q 150 694 147 696 q 146 692 142 692 q 139 700 139 699 m 596 701 q 617 692 611 704 q 589 674 622 676 q 571 678 571 672 q 581 692 571 682 q 596 701 592 701 m 228 711 q 231 686 231 697 q 233 665 232 675 q 228 654 236 654 q 207 661 224 654 q 185 664 190 668 q 186 653 185 657 q 222 646 222 656 q 205 637 222 640 q 181 632 188 633 q 177 658 181 639 q 174 690 174 678 q 228 711 208 704 m 694 713 q 706 688 706 708 q 689 694 696 688 q 676 690 682 692 q 663 686 669 689 q 640 686 649 682 q 672 697 656 692 q 694 713 689 701 m 456 721 q 475 708 475 728 q 465 700 475 701 q 449 714 449 697 q 456 721 449 718 m 182 721 q 202 717 193 718 q 217 714 211 715 q 169 696 169 696 l 182 721 m 588 725 q 606 714 606 731 q 597 704 606 706 q 579 718 579 703 q 588 725 579 722 m 163 725 q 169 713 174 722 q 167 710 167 710 q 166 714 167 710 q 163 725 165 718 m 708 726 q 708 696 710 708 l 708 726 m 711 739 l 776 739 l 776 732 l 711 732 l 711 739 m 786 740 q 789 732 793 733 q 786 740 786 735 m 326 743 q 368 703 344 714 q 429 694 386 694 l 429 679 q 431 663 431 672 q 331 654 418 664 q 328 699 331 671 q 326 743 326 728 m 317 743 q 324 699 322 731 q 325 678 325 689 q 325 656 325 668 q 243 650 271 658 q 238 692 240 676 q 236 715 236 708 q 254 721 254 721 q 290 734 275 728 q 317 743 306 740 m 150 743 q 151 735 150 742 q 150 725 150 729 q 163 694 161 706 q 147 703 153 700 q 139 707 142 706 q 150 743 139 740 m 425 753 l 433 703 q 432 697 433 699 q 425 753 424 739 m 68 753 q 69 746 69 753 l 68 753 m 644 757 l 644 703 q 642 708 642 692 q 643 731 642 714 q 644 757 644 747 m 410 761 q 410 758 411 760 q 333 746 360 747 q 347 753 340 750 q 410 761 389 757 m 657 763 q 676 752 667 757 q 697 740 686 747 q 699 736 700 738 q 674 751 685 744 q 657 763 664 757 m 540 764 q 542 737 542 749 q 543 714 543 725 q 541 742 542 729 q 540 764 540 754 m 218 767 q 224 742 221 753 q 228 721 226 731 q 189 729 201 728 q 218 767 201 750 m 514 769 q 531 768 511 768 q 471 760 493 763 q 442 758 449 758 q 435 758 435 758 q 443 760 436 758 q 468 764 457 761 q 495 767 483 765 q 514 769 507 768 m 553 771 q 600 770 579 771 q 639 768 621 769 q 591 767 613 767 q 553 771 569 768 m 143 790 q 146 772 144 779 q 149 758 147 764 q 139 754 140 756 q 143 790 139 774 m 181 794 l 217 778 q 167 735 186 728 q 157 756 153 740 q 169 778 164 768 q 181 794 175 788 m 700 797 q 704 762 703 772 q 706 756 706 751 q 707 744 707 756 q 703 774 704 761 q 700 797 701 788 m 433 818 q 439 810 426 815 q 443 815 446 813 q 433 818 440 818 m 701 819 q 699 818 700 818 q 697 817 699 818 q 710 806 697 811 q 711 815 711 810 q 701 819 710 821 m 432 821 q 447 813 440 819 q 442 809 444 810 q 438 807 439 808 q 432 780 435 792 q 428 761 429 768 q 424 774 421 761 q 428 801 426 789 q 432 821 431 814 m 699 822 q 710 817 708 819 q 714 806 713 815 q 646 765 664 779 q 654 779 647 775 q 666 786 661 783 q 674 792 671 789 q 699 822 693 804 m 563 825 q 558 822 558 822 q 579 813 558 814 q 563 825 572 826 m 561 828 q 582 819 574 825 q 565 807 578 808 q 554 786 560 796 q 542 768 549 776 l 538 772 q 540 779 540 778 q 546 790 543 785 q 551 797 549 794 q 561 828 558 815 m 304 831 q 311 800 311 810 q 315 786 313 797 q 317 771 317 775 q 311 768 314 764 q 296 788 307 771 q 276 804 285 801 q 273 795 274 799 q 271 789 272 792 q 294 773 283 786 q 315 747 306 760 q 290 740 290 740 q 264 731 275 735 q 246 724 253 726 q 229 744 233 719 q 227 764 228 757 q 226 774 226 771 q 304 831 231 786 m 207 832 q 218 788 214 810 q 211 792 214 790 q 206 794 208 793 q 189 807 189 803 q 207 832 189 806 m 318 836 l 325 836 q 325 794 322 821 q 327 766 326 776 q 328 750 328 756 q 318 836 315 819 m 404 850 q 410 826 407 840 q 415 793 413 813 q 415 778 418 778 q 410 820 413 801 q 404 850 407 839 m 638 851 q 642 820 640 833 q 644 797 643 807 q 643 785 644 786 q 640 824 640 807 q 638 851 639 840 m 538 851 q 538 786 546 849 q 538 851 536 829 m 717 853 q 714 840 721 844 q 699 835 707 835 q 694 836 696 835 q 703 844 696 840 l 717 853 m 646 854 q 666 846 657 850 q 682 839 675 842 q 662 848 671 844 q 646 854 653 851 m 388 857 q 394 856 390 857 q 332 840 336 840 q 351 849 336 844 q 388 857 374 854 m 558 861 q 594 861 578 861 q 629 860 613 861 q 590 859 607 858 q 558 861 572 860 m 167 861 q 187 847 178 853 q 203 836 196 840 q 178 808 183 808 q 167 819 174 808 q 158 816 161 817 q 156 815 156 815 q 154 811 154 813 q 153 808 154 810 q 162 803 153 804 q 171 797 171 803 q 163 776 171 790 q 156 763 156 763 q 153 774 154 763 q 167 861 146 818 m 422 864 q 476 867 449 867 q 536 861 506 867 l 415 861 l 422 864 m 278 878 q 304 838 299 850 q 225 783 250 801 q 221 806 222 797 q 218 819 219 815 q 219 839 215 835 q 245 858 231 849 q 278 878 260 867 m 189 886 q 203 868 201 878 q 206 847 204 858 q 178 869 178 867 q 189 886 178 875 m 144 888 q 143 881 156 890 q 144 888 143 885 m 688 892 q 696 850 693 854 q 694 854 694 853 q 693 860 694 857 q 690 870 692 865 q 688 878 689 875 l 688 892 m 301 893 q 302 888 301 892 q 304 878 303 885 q 304 864 307 867 q 297 867 303 860 q 301 893 288 883 m 321 901 q 317 844 332 853 q 308 876 310 860 q 321 901 308 899 m 201 901 q 203 896 204 899 q 201 901 200 899 m 669 904 q 672 896 665 904 q 676 901 676 900 q 674 903 675 903 q 669 904 672 903 m 669 907 q 676 900 674 903 q 679 896 678 897 q 640 857 650 874 q 639 867 639 863 q 647 876 643 872 q 653 883 650 881 q 669 907 667 900 m 571 908 q 574 903 571 908 q 582 897 578 897 q 585 899 579 906 q 543 856 553 874 q 546 868 546 869 q 571 908 567 901 m 410 922 q 410 879 415 918 l 410 922 m 369 922 q 332 908 333 910 l 338 910 q 356 917 349 914 q 369 922 364 919 m 631 926 q 633 902 632 913 q 636 883 635 892 q 635 886 635 885 q 633 890 635 888 q 631 913 632 904 q 631 926 631 922 m 529 928 q 539 876 539 894 q 536 871 536 871 q 533 898 535 883 q 529 928 532 913 m 400 933 q 390 929 401 935 l 394 931 q 397 932 396 932 q 400 933 399 932 m 282 935 q 293 915 292 921 q 296 896 299 901 q 289 889 292 889 q 278 898 286 889 q 263 906 271 907 q 275 882 269 888 q 239 859 254 868 q 213 843 224 850 q 210 872 211 861 q 208 889 208 882 q 252 916 233 904 q 282 935 271 928 m 499 938 q 506 937 500 938 q 521 935 511 936 q 422 936 429 935 q 469 936 451 936 q 499 938 489 936 m 543 939 q 594 939 575 939 q 619 938 614 939 l 619 932 q 576 936 596 935 q 543 939 557 938 m 629 940 q 633 938 632 939 q 633 938 633 938 l 629 933 l 629 940 m 374 944 q 382 943 378 943 l 382 938 q 395 899 383 922 q 408 861 407 876 q 397 875 400 869 q 381 911 397 879 q 369 943 368 939 q 378 933 365 932 q 374 944 388 936 m 297 944 q 303 914 304 939 q 297 944 292 939 m 271 960 q 279 940 276 949 q 250 924 267 933 q 211 900 233 914 q 224 921 215 914 q 271 960 265 958 m 354 965 q 324 907 326 922 q 310 911 313 904 q 310 929 308 917 q 311 944 311 939 q 311 951 311 950 q 337 960 326 957 q 354 965 347 963 m 283 967 l 296 954 q 294 951 294 953 q 292 949 293 950 q 286 951 288 947 q 283 967 285 954 m 304 975 q 306 960 308 975 q 297 972 297 968 q 304 975 297 978 m 517 981 q 521 967 519 974 q 524 956 522 961 q 521 965 522 958 q 517 981 519 971 m 431 989 q 485 985 465 986 q 507 981 499 985 q 428 985 465 981 l 431 989 m 538 992 q 540 990 546 992 q 543 985 540 990 q 549 990 556 986 q 558 986 553 989 q 540 956 546 975 q 532 938 533 938 q 533 957 529 938 q 542 978 538 975 q 538 992 540 992 m 425 1004 q 436 1001 433 1004 q 414 990 436 996 q 425 1004 415 1004 m 396 1004 q 409 986 403 1003 q 415 953 415 969 q 408 932 415 939 q 408 948 408 935 q 406 985 407 961 q 357 975 382 985 l 311 958 q 315 974 313 965 q 347 989 333 988 q 396 1004 390 1004 m 404 1022 q 414 1019 413 1019 q 411 1014 414 1017 q 403 1015 404 1014 l 404 1022 m 388 1111 q 392 1086 388 1108 q 397 1040 397 1058 q 381 1010 397 1018 q 329 994 381 1010 q 303 1018 318 990 q 290 1047 296 1035 q 281 1069 285 1060 q 276 1072 278 1072 q 264 1064 268 1065 q 271 1056 268 1058 q 275 1053 274 1054 q 294 1017 286 1033 q 307 986 301 1001 q 282 985 288 979 q 264 1011 271 1000 q 251 1029 257 1022 q 240 1015 243 1021 q 260 998 251 1006 q 271 983 268 990 q 264 968 258 978 q 241 953 250 960 q 225 940 232 946 q 219 939 222 939 q 181 990 183 974 q 163 990 167 989 q 157 997 160 993 q 151 1003 154 1000 q 139 990 139 992 q 140 983 138 989 q 167 968 154 981 q 176 957 172 963 q 186 946 181 951 q 204 925 204 929 q 185 906 204 921 q 168 919 175 913 q 156 928 161 925 q 148 938 153 929 q 139 947 143 947 q 131 938 131 947 q 158 913 131 932 q 176 896 176 900 q 167 876 176 892 q 157 885 164 878 q 147 893 150 893 q 141 890 144 893 q 140 876 138 886 q 154 870 150 875 q 158 864 158 865 q 154 856 156 857 q 64 885 71 879 q 59 889 61 888 q 54 892 57 890 q 49 890 49 890 q 51 869 47 881 q 65 872 60 872 q 149 846 74 872 q 144 831 146 836 q 140 822 142 825 q 97 842 115 833 q 65 857 78 850 q 63 851 64 854 q 60 842 61 847 q 82 835 72 838 q 99 829 92 832 q 121 819 111 824 q 138 813 131 815 q 132 787 135 801 q 128 754 129 772 q 94 756 117 754 q 63 757 72 757 l 63 739 q 128 743 89 743 l 128 735 q 110 735 121 735 q 82 738 99 736 q 59 740 68 739 q 44 739 50 740 q 56 722 46 722 q 61 724 60 722 l 96 724 q 114 722 107 722 q 128 722 122 722 l 128 713 q 76 709 97 710 q 42 710 54 708 q 49 694 42 697 q 56 694 50 694 q 75 696 63 694 q 119 700 131 700 q 121 711 119 710 q 128 692 124 711 q 76 693 79 692 q 79 679 75 679 q 83 680 78 679 q 96 681 88 681 q 113 681 104 681 q 128 682 122 682 q 124 664 129 668 q 119 663 124 664 q 106 660 115 663 q 53 653 65 650 q 61 632 46 638 q 65 639 65 638 q 103 648 86 644 q 131 653 119 651 q 132 638 131 647 q 133 626 133 629 q 129 618 133 619 q 117 619 126 617 q 103 622 107 622 q 74 581 74 622 q 121 446 74 542 q 126 428 128 431 q 121 422 126 424 q 110 417 115 419 q 99 412 104 414 q 94 406 94 410 q 104 400 94 400 q 114 403 108 400 q 133 415 124 413 l 138 415 q 139 413 139 414 q 140 411 139 413 q 115 389 107 403 q 119 386 118 386 q 133 394 124 386 q 149 401 143 401 q 174 393 163 397 q 197 386 186 389 q 201 357 199 365 q 172 347 182 350 q 163 344 163 344 q 118 317 113 326 l 119 315 q 131 311 125 311 q 161 335 133 324 q 183 341 172 338 q 204 347 193 344 q 206 335 206 340 q 206 325 206 329 q 178 306 190 314 q 158 293 165 299 q 153 291 156 292 q 147 289 150 290 q 149 281 143 288 q 158 275 156 275 q 211 314 165 294 q 214 302 213 307 q 217 293 215 297 q 163 269 182 278 q 138 257 143 260 q 153 251 139 243 q 224 278 224 293 q 199 257 224 263 q 201 251 200 254 q 206 243 203 249 q 201 236 208 239 q 188 232 194 233 q 179 229 182 231 q 151 215 151 218 q 161 204 151 210 q 185 221 176 219 q 235 238 228 238 q 253 210 242 238 q 207 185 215 186 q 206 172 206 181 q 215 165 208 164 q 217 167 219 165 q 256 201 239 192 q 257 183 264 190 q 216 156 231 165 q 201 144 201 146 q 214 136 201 140 q 222 150 221 144 q 269 181 250 169 q 285 159 279 168 q 296 144 292 150 q 300 136 300 138 q 287 121 293 129 q 274 104 281 113 q 240 81 254 85 q 257 65 250 68 q 310 128 261 88 q 349 89 349 93 q 328 69 349 86 q 311 59 319 64 q 303 49 303 54 q 308 42 303 46 q 315 39 313 39 q 333 64 317 50 q 343 71 336 67 q 361 82 350 75 q 475 47 417 47 q 475 18 476 43 q 481 0 475 1 q 497 6 492 0 q 497 19 503 14 q 490 38 492 31 q 486 47 488 44 q 563 89 529 49 q 582 111 581 111 q 665 92 606 117 q 669 104 667 100 q 592 121 613 115 q 616 149 606 136 q 633 169 626 161 q 711 113 708 124 q 721 114 718 114 q 725 114 725 114 q 729 126 729 119 q 683 151 703 140 q 653 169 664 163 q 646 175 649 172 q 640 179 643 178 q 643 182 643 182 q 661 210 656 200 q 668 224 667 219 q 701 188 699 194 l 714 192 q 694 214 714 203 q 672 233 674 225 q 681 251 671 247 q 729 231 718 242 q 736 249 738 228 q 715 251 726 246 q 694 258 704 256 q 690 258 692 260 l 686 261 q 682 261 683 263 q 681 263 681 263 q 679 265 681 264 q 693 314 692 288 q 736 294 736 294 q 744 306 744 294 q 703 321 725 308 q 697 344 693 325 q 701 357 699 353 q 774 358 769 357 q 764 369 772 372 q 737 367 753 368 q 701 367 721 367 q 713 389 707 386 q 707 421 713 414 q 736 442 729 433 q 785 439 749 447 q 797 443 794 436 q 796 457 799 444 q 746 453 781 453 q 758 474 751 465 q 808 475 764 482 q 783 489 807 490 q 769 487 774 488 q 761 486 764 486 q 767 506 763 493 q 779 539 772 519 q 790 594 790 572 q 815 599 808 596 q 808 604 813 603 q 800 607 804 606 q 793 611 796 608 q 790 622 790 614 q 803 618 796 621 q 813 615 811 615 q 822 628 818 615 q 789 636 790 633 q 744 646 771 651 q 751 660 743 660 q 763 658 754 660 q 775 656 771 656 q 788 669 786 656 q 778 668 783 669 q 742 669 782 669 q 742 678 743 675 q 783 688 764 692 q 785 696 785 693 q 786 701 786 699 q 769 703 781 707 l 749 694 q 746 693 747 693 q 743 692 744 693 q 744 708 744 699 q 742 729 743 717 q 751 729 746 729 q 768 728 758 729 q 785 728 781 725 q 793 739 792 731 q 740 742 788 742 l 740 768 q 825 763 813 768 q 828 772 828 768 q 831 779 829 776 l 740 779 l 740 792 q 826 806 818 792 q 738 801 819 810 q 736 808 739 801 q 767 818 747 814 q 771 833 779 817 q 733 822 749 822 q 731 832 732 828 q 728 842 729 836 q 740 857 728 849 q 744 874 754 865 q 724 858 733 858 q 711 874 711 858 q 743 900 711 893 q 744 903 743 901 q 740 913 747 906 q 736 915 738 915 q 725 906 731 915 l 713 893 q 690 896 701 885 q 693 900 692 901 q 720 932 708 922 q 724 947 732 942 q 715 950 715 950 q 688 908 714 928 q 665 919 683 906 q 653 930 658 925 q 642 940 647 935 q 667 965 656 954 q 685 982 678 975 q 682 985 679 985 q 672 992 675 992 q 665 983 669 992 q 658 971 661 975 q 631 951 636 951 q 625 956 625 951 q 644 986 625 963 q 669 1013 661 1007 q 663 1031 688 1026 l 663 1024 q 614 964 632 978 q 620 978 617 971 q 626 992 624 985 q 656 1031 644 1022 q 650 1040 653 1035 q 642 1039 643 1043 q 640 1029 640 1035 q 615 990 625 1003 q 603 969 606 976 q 569 988 603 969 q 533 997 549 999 q 542 1023 533 1006 q 549 1049 550 1040 q 536 1043 538 1050 q 532 1028 535 1036 q 522 1001 522 1003 l 518 1006 q 546 1090 535 1083 l 539 1097 q 536 1097 540 1097 q 526 1096 533 1097 q 521 1049 529 1076 q 514 1026 518 1038 q 507 1004 510 1015 q 472 1008 489 1006 q 440 1013 451 1011 q 425 1014 428 1014 q 416 1024 419 1019 q 410 1031 413 1028 q 406 1110 399 1057 q 394 1111 399 1111 q 388 1111 390 1111 z "},"1":{"ha":483,"x_min":18,"x_max":460,"o":"m 156 774 l 156 65 q 178 17 158 33 q 221 0 197 0 l 460 0 l 460 24 q 412 35 436 29 q 368 53 388 42 q 336 87 349 65 q 322 144 324 108 l 322 861 q 304 907 322 888 q 250 926 286 926 l 18 926 l 18 903 q 67 890 43 896 q 111 872 92 885 q 143 835 131 858 q 156 774 156 813 z "},"2":{"ha":815,"x_min":26,"x_max":800,"o":"m 164 774 l 164 65 q 186 17 167 33 q 229 0 206 0 l 468 0 l 468 24 q 420 35 444 29 q 376 53 396 42 q 344 87 357 65 q 331 144 332 108 l 331 861 q 313 907 331 888 q 258 926 294 926 l 26 926 l 26 903 q 76 890 51 896 q 119 872 100 885 q 151 835 139 858 q 164 774 164 813 m 496 774 l 496 65 q 518 17 499 33 q 561 0 538 0 l 800 0 l 800 24 q 752 35 776 29 q 708 53 728 42 q 676 87 689 65 q 663 144 664 108 l 663 861 q 644 907 663 888 q 590 926 626 926 l 358 926 l 358 903 q 408 890 383 896 q 451 872 432 885 q 483 835 471 858 q 496 774 496 813 z "},"3":{"ha":779,"x_min":21,"x_max":732,"o":"m 546 542 q 549 497 549 513 q 546 468 549 482 q 526 345 546 399 q 474 253 507 292 q 401 191 442 214 q 317 158 360 168 q 240 151 267 153 q 192 151 214 149 q 143 160 171 153 q 64 178 115 167 q 32 180 43 188 q 32 161 21 172 l 208 15 q 244 -8 226 -6 q 286 -11 263 -11 q 484 28 400 -11 q 623 135 568 68 q 705 288 678 201 q 732 467 732 374 q 705 658 732 572 q 624 803 678 743 q 492 897 571 864 q 308 929 413 929 l 306 929 q 269 927 293 928 q 215 917 246 926 q 174 901 193 908 q 144 884 156 894 q 128 857 132 874 q 129 814 124 840 l 178 636 q 186 626 181 628 q 197 627 192 625 q 205 634 201 629 q 207 646 208 639 q 225 714 211 685 q 259 763 239 743 q 303 792 279 783 q 353 800 328 801 q 481 744 439 788 q 536 613 522 700 q 501 581 525 592 q 453 568 476 569 l 271 568 q 244 567 256 568 q 226 564 233 567 q 213 553 218 561 q 201 531 207 544 l 183 444 q 186 422 179 429 q 207 411 193 414 q 240 408 221 408 q 279 408 260 408 l 421 408 q 469 429 450 408 q 500 475 489 450 q 515 520 511 500 q 519 540 519 540 l 546 542 z "},"4":{"ha":767,"x_min":38,"x_max":756,"o":"m 439 528 l 458 528 l 458 58 q 474 17 458 35 q 517 0 489 0 l 733 0 l 733 21 q 694 31 714 26 q 660 47 675 36 q 635 78 644 58 q 625 132 625 97 l 625 363 q 628 403 624 397 q 656 410 632 410 l 660 410 q 717 414 696 410 q 744 456 739 418 l 756 629 q 745 639 756 640 q 733 629 735 638 q 688 585 714 606 q 643 565 663 565 q 626 572 629 565 q 624 601 624 578 l 625 724 q 623 827 625 785 q 608 897 621 869 q 568 935 596 924 q 489 946 540 947 q 310 916 390 946 q 174 832 231 886 q 83 700 117 778 q 43 526 49 622 q 38 467 38 490 q 44 431 39 444 q 58 414 49 418 q 79 410 67 410 l 372 410 q 401 422 389 410 q 422 451 414 433 q 435 489 431 468 q 439 528 439 510 m 458 632 q 451 608 458 619 q 435 588 444 597 q 414 572 425 578 q 396 565 403 567 l 208 565 q 226 643 208 603 q 273 719 243 683 q 344 781 303 754 q 435 815 386 807 q 455 798 451 815 q 458 758 458 781 l 458 632 z "},"5":{"ha":756,"x_min":4,"x_max":733,"o":"m 306 375 q 313 392 307 383 q 335 407 319 400 q 378 418 351 414 q 447 422 404 422 q 512 407 488 422 q 549 368 536 392 q 567 317 563 344 q 571 264 571 289 q 564 210 571 236 q 540 166 557 185 q 496 137 524 147 q 426 126 468 126 l 426 124 q 361 130 396 124 q 294 155 326 136 q 234 207 261 174 q 193 294 207 240 q 188 308 193 304 q 174 310 182 311 q 159 304 167 308 q 147 294 151 300 l 90 135 q 88 107 86 118 q 93 90 89 96 q 103 80 97 83 q 111 74 108 76 q 197 18 149 36 q 290 -7 244 0 q 369 -13 335 -14 q 414 -12 404 -12 q 651 51 569 -12 q 733 261 733 115 q 715 394 733 336 q 669 491 697 451 q 606 551 642 531 q 536 571 571 571 l 396 571 q 365 560 378 571 q 342 532 351 549 q 329 496 333 515 q 325 461 325 476 l 304 461 l 304 729 q 313 764 304 751 q 341 782 322 776 q 389 788 360 788 q 458 789 418 789 q 513 785 485 789 q 567 772 542 782 q 615 743 593 761 q 651 694 638 725 q 667 683 654 685 q 679 694 679 682 l 667 882 q 640 921 668 915 q 569 926 611 926 l 4 926 l 4 907 q 47 898 25 903 q 85 883 68 893 q 113 853 103 872 q 124 801 124 835 l 124 460 q 129 410 122 428 q 149 385 136 393 q 181 375 163 376 q 224 374 200 374 q 239 374 233 374 q 254 374 246 374 q 274 375 263 375 q 306 375 285 375 z "},"6":{"ha":693,"x_min":44,"x_max":658,"o":"m 44 264 q 67 147 44 194 q 122 68 89 99 q 195 21 156 38 q 270 -3 235 4 q 333 -12 306 -11 q 368 -14 360 -14 q 481 4 429 -14 q 572 57 533 22 q 631 143 610 92 q 653 260 653 194 q 581 497 651 425 q 368 568 510 568 l 315 568 q 284 557 297 568 q 262 529 271 546 q 249 493 253 513 q 244 458 244 474 l 224 458 l 224 618 q 249 717 224 674 q 315 791 275 760 q 405 843 356 822 q 501 876 454 864 q 586 894 547 889 q 646 899 625 899 q 657 914 656 901 q 646 926 658 926 l 490 926 q 296 903 379 926 q 156 839 213 881 q 72 740 100 797 q 44 615 44 683 l 44 264 m 368 419 q 435 404 408 419 q 478 366 463 389 q 501 316 494 343 q 507 264 507 289 q 496 210 507 236 q 466 165 485 185 q 422 134 447 146 q 368 122 397 122 q 319 128 344 122 q 272 151 293 135 q 238 195 251 168 q 224 264 224 222 q 261 385 222 350 q 368 422 300 419 l 368 419 z "},"7":{"ha":694,"x_min":40,"x_max":657,"o":"m 185 0 l 458 0 l 458 24 q 409 35 433 29 q 365 54 385 42 q 333 90 346 67 q 321 151 321 113 l 631 788 q 650 831 643 807 q 654 875 657 854 q 635 910 651 896 q 586 925 619 925 l 169 926 q 126 926 146 926 q 92 922 107 926 q 68 903 78 917 q 54 864 58 890 l 40 672 q 54 659 40 657 q 69 672 68 661 q 136 738 107 714 q 199 774 165 763 q 277 788 232 786 q 390 789 322 790 l 547 789 q 546 786 544 786 q 549 785 547 786 q 549 781 550 783 q 540 775 549 779 q 428 747 471 764 q 363 693 386 729 l 125 197 q 85 107 93 144 q 86 45 76 69 q 122 10 96 21 q 185 0 147 0 z "},"8":{"ha":693,"x_min":29,"x_max":660,"o":"m 610 93 q 647 165 635 128 q 660 264 660 203 q 624 394 660 335 q 536 486 589 454 q 585 556 565 514 q 607 638 606 597 q 588 768 607 714 q 535 856 568 822 q 458 907 501 890 q 367 925 415 924 q 347 926 357 925 q 326 926 338 926 q 232 909 276 925 q 154 858 188 893 q 101 769 121 824 q 82 639 82 715 q 99 556 82 599 q 143 486 115 514 q 61 394 93 454 q 29 264 29 335 q 40 165 29 203 q 75 92 51 128 q 131 36 101 57 q 192 3 160 15 q 263 -12 225 -8 q 347 -17 301 -17 q 506 8 439 -17 q 610 93 574 32 m 347 393 q 400 382 375 393 q 444 353 425 371 q 474 312 463 335 q 485 264 485 289 q 474 218 485 242 q 445 175 464 194 q 401 143 426 156 q 347 131 376 131 q 296 141 321 131 q 251 170 271 151 q 219 213 231 189 q 207 264 207 236 q 219 313 207 289 q 251 354 231 336 q 296 383 271 372 q 347 393 321 393 m 233 682 q 263 753 233 724 q 346 782 293 782 q 387 773 367 782 q 422 750 407 764 q 445 719 436 736 q 454 688 454 703 q 443 624 454 654 q 417 589 432 593 q 394 581 406 585 q 375 567 383 578 q 361 537 367 557 q 356 481 356 517 l 333 481 q 328 533 333 514 q 313 562 322 551 q 293 577 304 572 q 271 589 282 582 q 243 626 253 597 q 233 682 233 654 z "},"9":{"ha":693,"x_min":43,"x_max":657,"o":"m 657 661 q 634 778 656 731 q 579 857 613 826 q 506 904 546 888 q 431 928 467 921 q 369 938 396 936 q 333 939 342 939 q 220 921 272 939 q 130 868 168 903 q 70 782 92 833 q 49 665 49 731 q 121 428 50 500 q 333 357 192 357 l 386 357 q 417 368 404 357 q 440 396 431 379 q 453 432 449 413 q 457 467 457 451 l 478 467 l 478 307 q 452 208 478 251 q 386 134 426 165 q 297 82 346 103 q 201 49 247 61 q 115 31 154 36 q 56 26 75 26 q 44 11 46 24 q 56 -1 43 -1 l 211 -1 q 406 22 322 -1 q 545 86 489 44 q 629 185 601 128 q 657 310 657 242 l 657 661 m 333 506 q 266 520 293 506 q 223 558 239 535 q 201 608 207 581 q 194 661 194 636 q 205 715 194 689 q 234 760 215 740 q 278 791 253 779 q 333 803 304 803 q 383 797 357 803 q 429 774 408 790 q 464 730 450 757 q 478 661 478 703 q 440 540 479 575 q 333 503 401 504 l 333 506 z "}," ":{"ha":488,"x_min":0,"x_max":0,"o":""},"J":{"ha":738,"x_min":-3,"x_max":694,"o":"m 486 774 l 485 157 q 467 134 482 144 q 432 116 453 124 q 389 104 411 108 q 349 100 367 100 q 250 108 299 97 q 159 142 201 118 q 84 203 117 165 q 35 292 51 240 q 10 315 24 314 q 0 299 -3 315 l 38 32 q 129 -4 81 8 q 222 -23 178 -17 q 301 -31 267 -29 q 349 -32 336 -32 q 478 -17 415 -32 q 588 23 540 -1 q 665 78 636 47 q 694 138 694 108 l 694 861 q 676 907 694 888 q 622 926 658 926 l 349 926 l 349 903 q 398 890 374 896 q 442 872 422 885 q 474 835 461 858 q 486 774 486 813 z "},"M":{"ha":1311,"x_min":42,"x_max":1304,"o":"m 181 772 l 181 64 q 199 18 181 38 q 253 -1 217 -1 l 503 1 l 503 25 q 453 37 478 31 q 410 56 429 43 q 378 92 390 69 q 365 154 365 114 l 365 571 l 564 247 q 585 209 575 222 q 606 190 596 196 q 627 183 617 183 q 649 182 638 182 l 719 182 q 738 182 731 181 q 751 190 744 183 q 765 209 757 196 q 788 247 774 222 l 958 572 l 958 64 q 976 18 958 38 q 1031 -1 994 -1 l 1304 -1 l 1304 22 q 1255 34 1279 28 q 1211 53 1231 40 q 1179 89 1192 67 q 1167 151 1167 111 l 1167 861 q 1149 907 1167 888 q 1094 926 1131 926 l 738 926 l 738 903 q 788 892 760 897 q 838 874 817 886 q 868 840 860 861 q 858 782 876 819 l 814 697 l 707 489 q 686 489 696 457 l 469 867 q 449 901 457 889 q 430 919 440 914 q 405 926 419 925 q 365 926 390 926 l 42 926 l 42 903 q 91 890 67 896 q 135 871 115 883 q 168 835 156 858 q 181 772 181 811 z "},"K":{"ha":965,"x_min":42,"x_max":965,"o":"m 179 775 l 181 64 q 199 18 181 38 q 253 -1 217 -1 l 526 -1 l 526 22 q 477 34 501 28 q 433 53 453 40 q 401 89 414 67 q 389 151 389 111 l 389 376 q 425 408 396 408 q 465 409 446 408 q 501 404 485 410 q 533 385 518 399 q 563 342 549 371 l 671 64 q 699 19 682 38 q 751 0 717 0 l 965 0 l 965 24 q 922 43 939 35 q 894 64 906 51 q 874 97 883 76 q 853 151 864 117 l 750 418 q 702 467 735 454 q 622 481 669 481 q 610 483 604 478 q 626 499 615 489 l 896 835 q 925 881 921 863 q 920 909 929 899 q 894 923 911 919 q 858 926 876 926 l 585 926 l 585 903 q 625 892 603 897 q 661 879 647 888 q 674 855 675 871 q 646 811 674 839 l 389 488 l 388 860 q 369 907 388 886 q 315 928 351 928 l 42 928 l 42 904 q 91 892 67 897 q 135 873 115 886 q 167 837 154 860 q 179 775 179 814 z "},"L":{"ha":792,"x_min":42,"x_max":818,"o":"m 179 771 l 179 64 q 198 19 179 38 q 253 0 217 0 l 663 0 q 712 -1 692 0 q 746 3 732 -1 q 768 17 760 7 q 783 50 776 28 l 815 329 q 804 345 818 346 q 779 322 790 344 q 717 203 746 242 q 651 149 688 164 q 567 134 615 133 q 449 135 519 135 q 403 154 417 135 q 389 235 389 174 l 389 860 q 370 906 389 886 q 315 926 351 926 l 42 926 l 42 903 q 91 890 67 896 q 135 872 115 885 q 167 835 154 858 q 179 774 179 813 l 179 771 z "},"N":{"ha":1047,"x_min":44,"x_max":961,"o":"m 961 861 q 928 915 950 904 q 856 926 907 926 l 643 926 l 643 903 q 693 890 668 896 q 738 870 718 883 q 770 835 758 857 q 779 774 782 813 l 779 400 l 369 896 q 359 907 363 901 q 349 917 356 913 q 333 924 343 921 q 306 926 324 926 l 44 926 l 44 903 q 94 890 69 896 q 138 871 118 883 q 171 835 158 858 q 183 772 183 811 l 182 64 q 200 19 182 38 q 254 0 218 0 l 507 0 l 507 24 q 458 35 482 29 q 414 55 433 42 q 382 90 394 68 q 369 153 369 113 l 369 551 l 779 47 q 817 13 800 26 q 853 0 833 0 q 910 0 889 0 q 944 3 932 0 q 958 13 956 6 q 961 35 961 19 l 961 861 z "},"P":{"ha":781,"x_min":44,"x_max":803,"o":"m 182 772 l 182 67 q 200 21 182 40 q 254 1 218 1 l 528 1 l 528 25 q 478 37 503 31 q 435 56 454 43 q 403 92 415 69 q 390 154 390 114 l 390 368 q 419 406 392 406 q 516 442 472 425 q 614 482 560 458 q 692 531 654 494 q 756 614 729 567 q 792 714 782 661 q 790 812 803 767 q 735 889 776 857 q 614 926 693 921 l 44 926 l 44 903 q 94 890 69 896 q 138 871 118 883 q 169 835 157 858 q 182 772 182 811 m 414 460 l 390 460 l 390 717 q 392 763 392 747 q 399 784 392 778 q 425 790 407 790 q 485 790 444 790 q 538 758 519 783 q 558 703 556 733 q 545 642 560 672 q 499 597 531 613 q 462 583 478 597 q 435 549 446 569 q 419 504 425 528 q 414 460 414 481 z "},"Q":{"ha":1006,"x_min":33,"x_max":1013,"o":"m 585 913 q 397 919 483 933 q 243 858 311 904 q 127 735 175 811 q 57 557 79 658 q 44 374 33 464 q 99 210 56 285 q 217 83 143 136 q 392 8 290 29 q 553 1 478 -10 q 690 44 628 11 q 702 26 694 38 q 719 1 710 14 q 740 -20 728 -11 q 767 -29 751 -29 l 1013 -29 l 1013 -6 q 953 7 983 -6 q 898 42 922 19 q 858 95 874 64 q 842 165 842 126 q 849 187 840 172 q 864 213 857 201 q 926 371 906 283 q 938 565 950 472 q 880 729 925 657 q 761 849 835 801 q 588 911 688 897 l 585 913 m 451 779 q 553 771 504 786 q 640 719 601 756 q 705 623 678 682 q 742 485 732 564 q 746 443 744 467 q 747 403 747 419 q 714 414 739 411 q 674 418 689 417 l 454 436 l 454 413 q 546 387 510 413 q 603 324 582 361 q 635 246 625 286 q 649 178 644 206 q 538 126 601 138 q 434 134 483 118 q 344 188 385 150 q 278 282 304 225 q 243 414 251 339 q 244 557 233 493 q 284 667 256 621 q 356 742 313 714 q 451 779 399 771 z "},"R":{"ha":926,"x_min":43,"x_max":894,"o":"m 628 61 q 656 17 636 35 q 711 0 676 0 l 894 0 l 894 24 q 856 44 869 32 q 834 70 842 56 q 822 103 826 85 q 811 142 817 121 l 742 397 q 694 448 731 433 q 614 460 657 463 q 594 465 597 460 q 613 482 592 471 q 690 531 653 494 q 754 614 728 567 q 791 714 781 661 q 788 812 801 767 q 733 889 775 857 q 613 926 690 921 l 43 926 l 43 903 q 92 890 68 896 q 136 872 117 885 q 168 835 156 858 q 181 774 181 813 l 181 65 q 199 19 181 39 q 253 0 217 0 l 526 0 l 526 24 q 477 35 501 29 q 433 55 453 42 q 401 90 414 68 q 389 153 389 113 l 389 368 q 398 397 390 388 q 429 406 406 406 q 467 406 450 406 q 498 401 483 407 q 526 382 513 396 q 553 339 539 368 l 628 61 m 411 486 l 390 486 l 390 715 q 391 761 392 746 q 398 783 390 776 q 424 790 406 789 q 483 790 443 790 q 536 758 518 783 q 556 703 554 733 q 544 644 558 674 q 497 599 529 614 q 434 577 456 599 q 411 486 413 556 z "},"S":{"ha":854,"x_min":82,"x_max":807,"o":"m 449 125 q 378 132 413 125 q 312 158 343 139 q 255 213 281 178 q 211 303 229 247 q 203 316 210 313 q 188 319 197 319 q 171 313 179 318 q 157 303 163 308 l 89 140 q 84 113 82 124 q 91 96 86 103 q 103 85 96 89 q 114 79 110 82 q 208 22 157 42 q 306 -6 260 3 q 386 -14 351 -14 q 433 -14 421 -14 q 715 51 622 -14 q 807 264 807 117 q 785 410 807 356 q 725 496 763 465 q 640 539 688 526 q 539 559 592 551 q 434 576 486 567 q 336 611 382 586 q 293 663 307 632 q 286 724 279 694 q 322 774 293 753 q 408 794 351 794 q 496 776 467 788 q 544 745 525 765 q 579 694 563 725 q 629 617 596 664 q 649 604 636 601 q 669 631 661 607 l 710 781 q 711 816 721 804 q 686 839 701 828 q 638 878 663 861 q 581 906 613 894 q 506 922 549 917 q 406 926 464 926 q 283 910 342 925 q 181 863 225 896 q 111 780 138 831 q 85 657 85 729 q 104 516 85 571 q 157 428 124 461 q 235 380 190 396 q 333 355 281 364 q 442 339 385 346 q 557 318 500 332 q 597 268 589 300 q 592 205 606 236 q 542 150 578 174 q 447 126 506 126 l 449 125 z "},"T":{"ha":931,"x_min":0,"x_max":931,"o":"m 354 64 q 373 19 354 38 q 428 0 392 0 l 701 0 l 701 24 q 652 35 676 29 q 608 55 628 42 q 576 90 589 68 q 564 153 564 113 l 564 731 q 566 765 564 753 q 578 783 568 778 q 611 790 589 789 q 675 790 633 790 l 793 790 q 838 790 817 790 q 874 795 858 790 q 901 813 890 800 q 915 854 911 826 l 931 1039 q 917 1053 931 1056 q 900 1039 903 1051 q 862 987 886 1007 q 809 956 838 967 q 750 942 781 946 q 693 939 719 939 q 408 933 543 933 q 132 953 274 933 q 92 953 110 953 q 60 947 74 953 q 37 928 46 942 q 24 889 28 915 l 0 671 q 14 658 0 656 q 29 671 28 660 q 119 747 67 722 q 233 782 171 772 q 363 791 294 792 q 500 790 431 790 l 500 772 q 429 758 457 765 q 385 742 401 750 q 361 723 368 733 q 354 700 354 713 l 354 64 z "},"U":{"ha":1024,"x_min":44,"x_max":956,"o":"m 390 863 q 372 908 390 889 q 318 928 354 928 l 44 928 l 44 904 q 94 892 69 897 q 138 873 118 886 q 169 837 157 860 q 182 775 182 814 l 182 224 q 210 119 182 161 q 280 51 238 78 q 373 10 322 24 q 470 -10 424 -4 q 553 -18 517 -17 q 603 -19 590 -19 q 733 0 669 -14 q 847 35 797 14 q 926 82 896 56 q 956 138 956 108 l 956 863 q 938 908 956 889 q 883 928 919 928 l 606 928 l 606 904 q 653 892 629 897 q 697 874 678 886 q 729 840 717 861 q 743 782 742 819 l 743 157 q 731 137 740 144 q 706 124 721 129 q 675 117 692 119 q 644 113 658 114 q 565 109 607 107 q 487 124 524 111 q 424 160 450 136 q 390 224 397 185 l 390 863 z "},"V":{"ha":828,"x_min":-92,"x_max":828,"o":"m 258 825 l 233 893 q 225 913 229 906 q 215 922 221 919 q 198 926 208 925 q 169 926 188 926 l -92 926 l -92 903 q -47 891 -67 896 q -10 876 -26 886 q 20 849 7 867 q 44 801 33 832 l 328 64 q 346 27 338 40 q 363 8 354 14 q 381 1 372 1 q 401 0 390 0 l 485 0 q 507 1 497 0 q 524 9 517 3 q 538 28 531 15 q 553 65 544 42 l 811 838 q 822 906 828 888 q 768 926 817 925 l 507 926 l 507 903 q 553 892 529 897 q 598 876 578 886 q 628 848 618 865 q 631 801 638 831 l 472 307 q 460 290 464 288 q 451 307 457 293 l 258 825 z "},"W":{"ha":1311,"x_min":-99,"x_max":1319,"o":"m 725 893 q 717 913 721 906 q 706 922 713 919 q 690 926 700 925 q 661 926 679 926 l 400 926 l 400 903 q 445 891 425 896 q 482 876 465 886 q 512 849 499 867 q 536 801 525 832 l 583 676 l 465 307 q 453 290 457 288 q 444 307 450 293 l 226 893 q 218 913 222 906 q 208 922 214 919 q 191 926 201 925 q 163 926 181 926 l -99 926 l -99 903 q -53 891 -74 896 q -17 876 -33 886 q 13 849 0 867 q 38 801 26 832 l 321 64 q 339 27 331 40 q 356 8 347 14 q 374 1 365 1 q 394 0 383 0 l 478 0 q 500 1 490 0 q 517 9 510 3 q 531 28 524 15 q 546 65 538 42 l 672 444 l 819 64 q 838 27 829 40 q 855 8 846 14 q 873 1 864 1 q 893 0 882 0 l 976 0 q 999 1 989 0 q 1015 9 1008 3 q 1029 28 1022 15 q 1044 65 1036 42 l 1303 838 q 1314 906 1319 888 q 1260 926 1308 925 l 999 926 l 999 903 q 1045 892 1021 897 q 1090 876 1069 886 q 1119 848 1110 865 q 1122 801 1129 831 l 964 307 q 952 290 956 288 q 943 307 949 293 l 725 893 z "},"X":{"ha":1039,"x_min":-44,"x_max":1083,"o":"m 688 429 l 1022 874 q 1037 903 1036 893 q 1028 919 1038 914 q 1004 926 1019 925 q 972 926 989 926 l 639 926 l 639 900 q 682 890 660 894 q 724 877 704 885 q 759 858 744 869 q 779 828 774 846 l 596 567 q 583 558 586 556 q 572 567 579 560 l 326 888 l 326 889 q 317 910 321 903 q 305 922 313 918 q 285 926 297 925 q 253 926 274 926 l -44 926 l -44 900 q 26 885 -4 900 q 76 852 56 871 q 110 814 97 833 q 131 786 122 794 l 350 496 l 17 51 q 2 22 3 32 q 10 6 1 11 q 35 1 19 1 q 67 0 50 0 q 83 0 74 0 q 125 -1 93 0 q 221 -1 157 -1 q 400 -1 285 -1 l 400 25 q 357 35 379 31 q 315 48 335 40 q 279 67 294 56 q 258 97 264 78 l 443 358 q 456 367 451 369 q 467 358 460 365 l 711 38 l 711 36 q 722 15 717 22 q 733 3 726 7 q 752 -1 740 0 q 785 -1 764 -1 l 1083 -1 l 1083 25 q 1013 40 1043 25 q 963 73 983 54 q 929 111 942 92 q 908 139 917 131 l 688 429 z "},"Y":{"ha":900,"x_min":-40,"x_max":907,"o":"m 392 67 q 410 21 392 40 q 464 1 428 1 l 736 0 l 736 24 q 687 35 711 29 q 643 55 663 42 q 611 90 624 68 q 599 153 599 113 l 601 485 l 894 879 q 907 906 907 896 q 900 920 907 915 q 880 926 893 925 q 851 926 867 926 l 558 926 l 558 903 q 596 894 576 899 q 633 883 615 889 q 665 866 651 876 q 682 839 678 856 l 521 607 q 510 599 513 597 q 500 607 507 600 l 285 892 l 285 893 q 276 913 281 906 q 266 922 272 919 q 249 926 260 925 q 221 926 239 926 l -40 926 l -40 903 q 21 890 -6 903 q 65 860 47 876 q 94 826 83 843 q 113 801 106 810 l 393 435 l 392 67 z "},"Z":{"ha":1018,"x_min":40,"x_max":974,"o":"m 542 792 l 843 792 l 819 771 q 747 760 785 765 q 676 747 710 756 q 617 727 643 739 q 579 697 592 715 l 76 100 q 55 72 65 89 q 42 40 44 56 q 52 12 40 24 q 97 0 64 0 l 818 0 q 867 -1 847 0 q 901 3 888 -1 q 924 17 915 7 q 939 50 932 28 l 971 329 q 960 345 974 346 q 935 322 946 344 q 867 213 903 251 q 787 158 831 175 q 691 138 743 140 q 574 135 639 135 l 453 135 q 417 138 431 135 q 400 150 403 140 q 408 178 397 160 q 449 229 419 197 l 915 789 q 951 833 936 810 q 970 878 967 857 q 961 913 974 899 q 915 926 949 926 l 171 926 q 128 926 147 926 q 94 922 108 926 q 69 903 79 917 q 56 864 60 890 l 42 672 q 56 659 42 657 q 71 672 69 661 q 160 749 108 724 q 274 783 213 774 q 404 792 336 793 q 542 792 472 792 z "},"D":{"ha":1010,"x_min":51,"x_max":964,"o":"m 189 774 l 189 65 q 207 19 189 39 q 261 0 225 0 l 540 0 q 564 1 550 0 q 592 2 578 1 q 616 4 606 3 q 629 7 626 6 q 771 74 708 29 q 876 181 833 119 q 942 315 919 242 q 964 468 964 389 q 943 674 964 592 q 889 806 922 756 q 814 883 856 857 q 733 918 772 908 q 659 927 693 928 q 606 926 625 926 l 51 926 l 51 903 q 101 890 76 896 q 144 872 125 885 q 176 835 164 858 q 189 774 189 813 m 399 790 l 507 790 q 600 767 558 786 q 670 710 642 749 q 714 613 699 672 q 729 465 729 553 q 718 322 731 386 q 678 214 706 258 q 608 145 651 169 q 507 121 565 121 l 399 121 l 399 790 z "},"!":{"ha":575,"x_min":50,"x_max":533,"o":"m 188 774 l 188 365 l 188 285 q 190 262 189 274 q 198 241 192 250 q 218 226 204 232 q 260 219 232 219 l 396 219 l 396 367 l 396 775 l 396 861 q 378 907 396 888 q 324 926 360 926 l 50 926 l 50 903 q 99 890 75 896 q 143 872 124 885 q 175 835 163 858 q 188 774 188 813 m 261 153 q 219 151 233 154 q 198 140 204 147 q 190 122 192 133 q 188 93 189 110 l 188 65 q 206 19 188 39 q 260 0 224 0 l 533 0 l 533 24 q 484 35 508 29 q 440 55 460 42 q 408 90 421 68 q 396 153 396 113 l 261 153 z "},":":{"ha":281,"x_min":40,"x_max":194,"o":"m 40 65 q 43 42 40 54 q 53 18 46 29 q 72 -1 60 7 q 101 -8 83 -8 l 129 -8 q 174 10 156 -8 q 193 64 193 28 l 194 297 l 171 297 q 159 248 165 272 q 140 204 153 224 q 103 173 126 185 q 40 161 79 161 l 40 65 m 194 647 q 192 672 194 657 q 182 699 189 686 q 163 720 175 711 q 133 729 151 729 l 106 729 q 60 708 79 729 q 40 651 40 688 l 40 408 l 64 408 q 77 458 71 433 q 96 502 83 482 q 131 534 108 522 q 193 546 153 546 l 194 647 z "},"?":{"ha":835,"x_min":53,"x_max":779,"o":"m 286 285 q 304 240 286 260 q 358 219 322 221 l 494 219 l 494 411 q 506 434 494 421 q 528 453 517 447 q 597 481 554 467 q 680 520 639 496 q 750 583 721 544 q 779 682 779 621 q 687 893 779 829 q 406 957 594 957 q 358 957 393 957 q 277 950 324 957 q 179 924 231 943 q 85 867 128 904 q 74 860 81 864 q 62 850 67 857 q 55 833 57 843 q 60 806 53 822 l 128 643 q 142 633 133 638 q 159 627 150 628 q 174 629 168 626 q 182 643 181 632 q 226 733 200 699 q 283 788 251 768 q 349 814 314 807 q 419 821 383 821 l 418 819 q 513 796 476 819 q 563 741 549 772 q 568 678 576 710 q 528 628 560 646 q 467 601 500 611 q 403 581 433 590 q 315 513 344 563 q 286 397 286 463 l 286 285 m 360 153 q 336 150 349 153 q 313 141 324 147 q 294 123 301 135 q 286 93 286 111 l 286 65 q 304 19 286 39 q 358 0 322 0 l 632 0 l 632 24 q 583 35 607 29 q 539 55 558 42 q 507 90 519 68 q 494 153 494 113 l 360 153 z "},"\"":{"ha":486,"x_min":65,"x_max":410,"o":"m 218 928 q 215 951 218 938 q 206 975 213 964 q 188 994 200 986 q 158 1001 176 1001 l 131 1001 q 85 982 104 1000 q 65 928 65 964 l 65 661 l 88 661 q 100 711 93 686 q 119 756 107 736 q 155 788 132 775 q 218 800 178 800 l 218 928 m 410 926 q 407 949 410 936 q 398 974 404 963 q 380 992 392 985 q 350 1000 368 1000 l 322 1000 q 276 981 296 999 q 257 926 257 963 l 257 660 l 279 660 q 292 710 285 685 q 311 754 299 735 q 347 786 324 774 q 410 799 369 799 l 410 926 z "},"'":{"ha":324,"x_min":69,"x_max":222,"o":"m 222 928 q 219 951 222 938 q 210 975 217 964 q 192 994 204 986 q 163 1001 181 1001 l 135 1001 q 89 982 108 1000 q 69 928 69 964 l 69 661 l 92 661 q 104 711 97 686 q 124 756 111 736 q 159 788 136 775 q 222 800 182 800 l 222 928 z "},"O":{"ha":994,"x_min":43,"x_max":958,"o":"m 594 914 q 407 920 493 935 q 253 859 321 906 q 137 736 185 813 q 67 558 89 660 q 54 376 43 465 q 109 212 65 286 q 226 84 153 138 q 401 10 300 31 q 591 6 503 -12 q 749 75 679 25 q 866 201 818 125 q 936 372 914 278 q 944 567 958 474 q 884 733 929 660 q 766 853 839 806 q 597 913 693 901 l 594 914 m 453 788 q 554 779 506 794 q 641 727 603 764 q 706 631 679 690 q 743 493 733 572 q 742 359 753 421 q 704 250 732 297 q 634 173 676 203 q 539 135 592 143 q 435 142 485 126 q 346 196 386 158 q 279 290 306 233 q 244 422 253 347 q 246 565 235 501 q 285 676 257 629 q 357 751 314 722 q 453 788 400 779 z "},"$":{"ha":854,"x_min":82,"x_max":807,"o":"m 211 303 q 203 316 210 313 q 188 319 197 319 q 171 313 179 318 q 157 303 163 308 l 89 140 q 84 113 82 124 q 91 96 86 103 q 103 85 96 89 q 114 79 110 82 q 197 27 153 46 q 282 -1 240 8 q 234 -31 263 -22 q 176 -49 206 -40 l 176 -76 l 351 -76 q 401 -58 383 -76 q 424 -14 419 -39 l 433 -14 q 453 -14 443 -14 q 472 -12 463 -14 q 494 -59 475 -40 q 546 -78 513 -78 l 710 -81 l 710 -53 q 648 -33 678 -43 q 597 1 618 -22 q 755 90 703 26 q 807 264 807 153 q 788 402 807 349 q 736 486 768 456 q 661 531 704 517 q 571 554 618 546 l 571 708 q 595 668 582 690 q 629 617 608 646 q 649 604 636 601 q 669 631 661 607 l 710 781 q 711 816 721 804 q 686 839 701 828 q 638 877 663 861 q 582 904 614 893 q 604 940 590 926 q 635 963 618 954 q 671 976 651 971 q 710 988 690 982 l 710 1015 l 544 1013 q 490 990 508 1013 q 471 936 471 967 l 471 924 q 448 926 460 925 q 425 926 436 926 l 425 939 q 406 992 425 969 q 351 1015 388 1015 l 176 1015 l 176 988 q 213 977 194 982 q 247 965 231 972 q 278 945 264 957 q 300 914 292 933 q 215 883 254 903 q 147 831 176 863 q 101 757 118 800 q 85 657 85 714 q 103 520 85 574 q 151 434 121 467 q 224 385 182 401 q 315 358 267 368 l 315 156 q 256 210 283 175 q 211 303 229 244 m 449 125 l 425 125 l 425 342 q 448 338 436 339 q 471 335 460 338 l 472 128 q 460 126 465 126 q 447 126 454 126 l 449 125 m 425 578 l 425 792 q 449 788 438 789 q 471 783 460 786 l 471 569 l 425 578 m 315 768 l 315 629 q 283 701 285 661 q 315 768 281 742 m 571 172 l 571 308 q 600 243 600 283 q 571 172 600 204 z "},"#":{"ha":1010,"x_min":40,"x_max":967,"o":"m 814 282 q 876 269 853 282 q 912 238 899 257 q 931 194 925 218 q 943 144 936 169 l 967 144 l 967 376 q 947 431 967 413 q 901 449 928 449 l 697 449 l 697 503 l 900 503 q 946 521 926 503 q 965 575 965 539 l 967 804 l 943 804 q 932 758 938 781 q 916 717 926 736 q 887 685 906 699 q 836 668 868 672 l 697 668 l 697 775 q 710 837 697 814 q 742 873 722 860 q 785 892 761 886 q 835 904 810 897 l 835 928 l 603 928 q 549 908 567 928 q 531 863 531 889 l 531 668 l 478 668 l 478 863 q 460 908 478 889 q 406 928 442 928 l 174 928 l 174 904 q 223 892 199 897 q 267 873 247 886 q 299 837 286 860 q 311 775 311 814 l 311 668 l 193 668 q 131 681 153 668 q 95 713 108 693 q 76 756 82 732 q 64 806 69 781 l 40 806 l 40 574 q 60 521 40 538 q 106 504 79 504 l 311 503 l 311 449 l 106 449 q 60 431 79 449 q 40 376 40 413 l 40 144 l 64 144 q 76 194 69 169 q 95 238 82 218 q 131 269 108 257 q 193 282 153 282 l 311 282 l 311 154 q 299 92 311 114 q 267 56 286 69 q 223 37 247 43 q 174 25 199 31 l 174 1 l 406 1 q 460 21 442 1 q 478 67 478 40 l 478 282 l 531 282 l 532 68 q 549 21 532 42 q 601 0 565 0 l 833 1 l 833 25 q 788 36 810 31 q 747 52 765 42 q 715 81 728 63 q 697 132 701 100 l 697 282 l 814 282 m 478 503 l 531 503 l 531 449 l 478 449 l 478 503 z "},"<":{"ha":1147,"x_min":42,"x_max":1115,"o":"m 933 647 q 953 656 946 651 q 963 666 960 660 q 966 683 965 672 q 967 711 967 693 l 967 926 l 943 926 q 931 881 936 901 q 917 844 926 861 q 890 815 907 828 q 842 790 872 801 l 106 504 q 69 486 82 494 q 49 469 56 478 q 42 450 43 460 q 42 431 42 440 l 42 347 q 43 325 42 335 q 51 308 44 315 q 70 294 57 301 q 107 279 83 288 l 949 0 l 1115 0 l 1115 24 q 1022 53 1057 36 q 965 91 986 71 q 932 131 943 111 q 910 169 921 151 q 884 201 899 188 q 842 221 869 214 l 271 385 q 254 397 251 393 q 271 406 257 400 l 933 647 z "},">":{"ha":1147,"x_min":40,"x_max":1114,"o":"m 222 647 q 203 656 210 651 q 193 666 196 660 q 190 683 190 672 q 189 711 189 693 l 189 926 l 213 926 q 224 881 218 901 q 239 844 229 861 q 266 815 249 828 q 314 790 283 801 l 1050 504 q 1087 486 1074 494 q 1106 469 1100 478 q 1113 450 1113 460 q 1114 431 1114 440 l 1114 347 q 1113 325 1114 335 q 1105 308 1111 315 q 1085 294 1099 301 q 1049 279 1072 288 l 207 0 l 40 0 l 40 24 q 134 53 99 36 q 191 91 169 71 q 224 131 213 111 q 246 169 235 151 q 272 201 257 188 q 314 221 286 214 l 885 385 q 901 397 904 393 q 885 406 899 400 l 222 647 z "},"=":{"ha":904,"x_min":40,"x_max":868,"o":"m 99 446 q 58 430 75 446 q 40 386 40 414 l 40 200 l 63 200 q 72 237 67 218 q 85 272 76 256 q 110 299 94 288 q 156 313 126 310 l 731 313 q 786 303 765 313 q 819 277 807 293 q 836 241 831 261 q 847 201 842 221 l 868 201 l 868 388 q 851 431 868 415 q 810 446 833 446 l 99 446 m 183 619 q 126 629 147 619 q 93 654 106 639 q 74 689 81 669 q 63 728 68 708 l 42 728 l 42 546 q 58 503 42 518 q 97 489 74 489 l 808 488 q 850 503 832 488 q 868 547 868 519 l 868 728 l 847 728 q 836 689 842 708 q 819 654 831 669 q 788 629 808 639 q 733 619 768 619 l 183 619 z "},"+":{"ha":904,"x_min":124,"x_max":753,"o":"m 482 676 q 490 722 482 704 q 510 749 499 739 q 538 765 522 760 q 568 774 553 769 l 568 790 l 429 792 q 396 778 407 792 q 385 746 385 765 l 383 515 l 168 515 q 136 503 149 515 q 124 468 124 490 l 124 321 l 140 321 q 147 350 144 335 q 157 378 150 365 q 176 399 164 390 q 211 410 189 407 l 383 410 l 383 176 q 394 144 383 157 q 426 131 406 131 l 561 132 l 561 149 q 532 157 546 153 q 507 169 518 161 q 489 194 496 178 q 482 238 482 210 l 482 410 l 649 410 q 690 401 675 410 q 715 381 706 393 q 728 352 724 368 q 738 321 733 336 l 753 321 l 753 469 q 740 503 753 492 q 708 515 726 515 l 482 515 l 482 676 z "},"":{"ha":1169,"x_min":22,"x_max":1125,"o":"m 743 425 l 726 424 l 726 729 q 735 772 728 757 q 760 794 743 788 q 802 803 776 801 q 865 804 828 804 q 914 800 889 804 q 963 783 939 796 q 1006 747 986 771 q 1039 686 1026 724 q 1051 672 1040 674 q 1063 686 1063 669 l 1053 871 q 1043 909 1050 897 q 1024 925 1036 921 q 997 928 1013 929 q 964 926 982 926 l 389 925 q 164 840 254 936 q 42 558 74 743 q 31 376 22 465 q 74 212 40 286 q 165 84 107 138 q 300 10 222 31 q 445 6 378 -11 q 565 69 513 22 l 565 64 q 578 19 565 39 q 619 0 592 0 l 833 0 l 833 1 l 1004 1 q 1042 1 1026 1 q 1069 4 1058 0 q 1086 19 1079 8 q 1099 50 1093 29 l 1124 331 q 1114 347 1125 347 q 1094 324 1103 346 q 1042 215 1069 253 q 981 160 1014 176 q 906 140 947 143 q 815 138 865 138 q 807 138 810 138 q 800 138 804 138 q 789 138 796 138 q 771 139 783 138 q 760 143 764 142 q 749 147 757 144 q 731 178 736 158 q 726 247 725 199 l 726 304 q 734 333 728 319 q 749 358 740 347 q 769 374 758 368 q 788 381 779 381 l 911 381 q 942 385 933 381 q 958 418 950 389 l 969 529 q 969 551 974 544 q 955 561 964 558 q 932 564 946 564 q 906 564 919 564 l 808 564 q 779 550 792 564 q 759 515 767 536 q 747 470 751 494 q 743 425 743 446 m 340 789 q 485 731 422 804 q 565 504 547 657 l 565 354 q 510 206 553 264 q 407 136 468 149 q 326 143 365 128 q 257 195 288 158 q 206 289 226 232 q 179 421 185 346 q 181 565 172 501 q 210 676 189 629 q 265 751 232 722 q 340 789 299 779 z "},"":{"ha":972,"x_min":38,"x_max":929,"o":"m 554 928 l 429 928 q 436 912 425 919 q 464 897 447 904 q 475 888 468 893 q 482 864 482 883 l 482 572 q 489 556 482 564 q 511 549 496 549 l 603 549 q 603 553 607 550 q 593 560 600 557 q 578 567 586 564 q 565 572 569 569 q 558 583 558 579 q 556 604 558 589 l 554 781 l 631 649 q 647 626 640 628 q 663 624 653 624 l 693 624 q 705 626 700 624 q 719 649 710 628 l 788 781 l 788 572 q 795 556 788 564 q 814 549 803 549 l 918 549 q 915 558 929 553 q 882 572 900 564 q 872 582 875 579 q 869 608 869 585 l 869 900 q 860 917 869 908 q 840 928 850 925 l 699 928 q 706 914 690 919 q 735 900 721 908 q 743 896 740 897 q 747 892 746 894 q 749 886 749 890 q 749 872 749 882 l 688 746 q 681 740 682 739 q 681 746 681 740 l 592 903 q 578 924 583 919 q 554 928 574 928 m 204 549 l 307 549 q 308 554 311 551 q 297 560 304 557 q 283 567 290 564 q 274 572 276 569 q 261 583 263 579 q 260 608 260 588 l 260 849 q 260 861 260 857 q 263 868 260 865 q 276 872 267 871 q 303 872 285 872 l 365 872 q 386 876 376 872 q 396 897 396 879 l 401 972 q 397 978 401 979 q 392 972 392 978 q 360 938 381 947 q 318 928 339 928 l 72 928 q 46 900 51 928 l 38 825 q 44 817 38 815 q 50 825 50 818 q 85 854 64 844 q 131 868 107 864 q 182 872 156 872 q 235 872 210 872 q 235 867 238 869 q 221 861 233 865 q 194 851 208 858 q 179 838 179 843 l 179 572 q 186 556 179 564 q 204 549 193 549 z "},"(":{"ha":535,"x_min":-28,"x_max":510,"o":"m 164 913 q 164 7 -28 460 l 164 -74 q 182 -119 164 -100 q 236 -139 200 -139 l 510 -139 l 510 -115 q 460 -103 485 -110 q 417 -84 436 -97 q 385 -49 397 -71 q 372 14 372 -26 q 372 914 147 464 l 372 1000 q 354 1046 372 1026 q 300 1065 336 1065 l 26 1065 l 26 1042 q 76 1029 51 1035 q 119 1010 100 1024 q 151 974 139 997 q 164 913 164 951 z "},")":{"ha":535,"x_min":26,"x_max":561,"o":"m 164 913 q 164 7 383 460 l 164 -74 q 182 -119 164 -100 q 236 -139 200 -139 l 510 -139 l 510 -115 q 460 -103 485 -110 q 417 -84 436 -97 q 385 -49 397 -71 q 372 14 372 -26 q 372 914 561 461 l 372 1000 q 354 1046 372 1026 q 300 1065 336 1065 l 26 1065 l 26 1042 q 76 1029 51 1035 q 119 1010 100 1024 q 151 974 139 997 q 164 913 164 951 z "},"/":{"ha":647,"x_min":31,"x_max":615,"o":"m 390 878 l 39 -4 q 31 -40 31 -21 q 40 -75 32 -58 q 66 -103 49 -92 q 111 -112 83 -114 l 357 -111 l 358 -89 q 308 -81 335 -83 q 260 -69 281 -78 q 232 -43 240 -61 q 239 11 224 -25 l 608 925 q 615 955 614 938 q 610 988 615 972 q 591 1014 604 1003 q 557 1025 578 1025 l 263 1025 l 261 1003 q 310 990 286 996 q 352 973 333 985 q 381 939 371 961 q 390 878 392 917 z "},"\\":{"ha":944,"x_min":25,"x_max":919,"o":"m 564 -42 q 598 -97 579 -79 q 657 -114 617 -114 l 919 -114 l 919 -90 q 864 -76 893 -83 q 807 -56 835 -69 q 755 -19 779 -43 q 714 47 731 6 l 342 950 q 331 980 336 967 q 316 1003 325 993 q 292 1018 307 1013 q 251 1024 276 1024 l 25 1024 l 26 1000 q 93 986 64 1000 q 144 949 122 972 q 180 898 165 926 q 204 839 194 869 l 564 -42 z "},"A":{"ha":849,"x_min":-6,"x_max":935,"o":"m 935 0 l 935 24 q 889 34 910 31 q 849 48 868 38 q 813 80 831 58 q 778 146 796 101 l 514 863 q 501 904 507 890 q 488 923 494 918 q 470 927 481 928 q 443 926 460 926 l 357 926 q 333 927 342 926 q 316 923 324 928 q 301 904 308 918 q 285 861 294 890 l 6 65 q 17 20 -6 40 q 76 0 40 0 l 329 0 l 329 24 q 282 35 306 29 q 239 51 258 40 q 208 82 219 63 q 196 135 196 101 l 219 201 q 231 235 226 224 q 240 253 235 247 q 252 259 244 258 q 275 260 260 260 l 478 260 q 502 258 493 258 q 517 251 511 257 q 527 235 522 246 q 540 203 532 224 l 593 65 q 626 19 604 39 q 685 0 649 0 l 935 0 m 263 326 l 365 617 q 379 633 374 636 q 390 617 385 631 l 444 450 q 447 422 456 426 q 414 418 438 418 q 369 417 389 418 q 334 407 350 415 q 304 380 318 399 q 278 326 290 361 l 263 326 z "},"B":{"ha":925,"x_min":51,"x_max":867,"o":"m 189 67 q 207 21 189 40 q 261 0 225 1 l 568 0 q 678 18 624 0 q 774 71 732 36 q 841 158 815 106 q 867 276 867 210 q 839 419 865 369 q 777 492 813 469 q 704 517 742 514 q 642 518 667 519 l 639 524 q 711 554 676 525 q 770 626 746 583 q 803 720 794 669 q 799 815 813 771 q 742 892 785 860 q 622 929 700 924 l 51 929 l 51 906 q 99 893 75 899 q 143 875 124 888 q 175 842 163 863 q 189 783 188 821 l 189 67 m 468 408 q 569 392 531 413 q 624 340 607 372 q 638 269 642 307 q 614 198 635 231 q 556 145 593 165 q 468 129 518 125 l 431 129 q 417 130 424 129 q 407 136 411 131 q 401 155 403 142 q 399 193 399 168 l 399 360 q 405 397 399 386 q 428 408 411 408 l 468 408 m 424 489 l 400 489 l 399 719 q 400 765 400 750 q 408 787 400 781 q 433 793 415 793 q 493 793 453 793 q 546 761 528 786 q 566 706 564 736 q 553 645 568 675 q 507 600 539 615 q 443 577 463 601 q 424 489 424 553 z "},"C":{"ha":783,"x_min":44,"x_max":789,"o":"m 447 796 q 497 788 472 797 q 541 759 521 779 q 575 710 561 739 q 593 642 589 681 q 595 630 592 635 q 603 623 599 625 q 614 622 608 621 q 622 632 619 624 l 671 810 q 672 853 676 836 q 656 880 668 869 q 626 897 644 890 q 585 913 607 904 q 531 923 554 922 q 494 925 507 924 l 492 925 q 305 892 388 925 q 165 798 222 858 q 76 652 107 738 q 44 461 44 567 q 74 282 44 368 q 161 129 103 196 q 306 22 219 63 q 506 -18 392 -18 q 547 -15 529 -18 q 583 8 565 -12 l 778 175 q 778 194 789 186 q 746 192 767 201 q 667 174 694 181 q 617 165 639 167 q 569 165 596 163 q 493 172 543 167 q 407 202 450 182 q 330 258 364 222 q 275 344 296 293 q 254 464 254 394 q 263 603 254 544 q 293 703 271 663 q 352 765 315 743 q 447 796 389 788 z "},"-":{"ha":904,"x_min":124,"x_max":753,"o":"m 168 515 q 136 503 149 515 q 124 468 124 490 l 124 321 l 140 321 q 147 350 144 335 q 157 378 150 365 q 176 399 164 390 q 211 410 189 407 l 649 410 q 690 401 675 410 q 715 381 706 393 q 728 352 724 368 q 738 321 733 336 l 753 321 l 753 469 q 740 503 753 492 q 708 515 726 515 l 168 515 z "},"":{"ha":853,"x_min":21,"x_max":947,"o":"m 947 0 l 947 24 q 901 34 922 31 q 862 48 881 38 q 826 80 843 58 q 790 146 808 101 l 526 863 q 494 917 514 908 q 453 925 474 925 l 369 925 q 334 915 349 925 q 301 861 319 904 l 31 92 l 21 65 q 39 19 21 39 q 93 0 57 0 l 346 0 l 346 24 q 299 35 322 29 q 256 51 275 40 q 224 82 236 63 q 213 135 213 101 l 236 201 q 247 235 243 224 q 256 253 251 247 q 269 259 261 258 q 292 260 276 260 l 490 260 q 515 258 506 258 q 529 251 524 257 q 540 235 535 246 q 553 203 544 224 l 606 65 q 639 19 617 39 q 697 0 661 0 l 947 0 m 279 326 l 382 617 q 394 633 390 636 q 403 617 397 631 l 457 450 q 459 422 468 426 q 426 418 450 418 q 342 393 378 422 q 294 326 307 364 l 279 326 m 524 1004 q 526 981 524 993 q 535 957 529 968 q 553 938 542 946 q 582 929 564 929 l 610 929 q 656 947 636 929 q 676 1000 676 964 l 676 1274 l 653 1274 q 640 1224 646 1249 q 621 1180 633 1200 q 585 1148 608 1160 q 524 1136 563 1136 l 524 1004 m 179 1004 q 182 981 179 993 q 191 957 185 968 q 208 938 197 946 q 238 929 219 929 l 265 929 q 312 947 292 929 q 332 1000 332 964 l 332 1274 l 308 1274 q 295 1224 301 1249 q 276 1180 289 1200 q 241 1148 264 1160 q 179 1136 218 1136 l 179 1004 z "},"":{"ha":1024,"x_min":44,"x_max":956,"o":"m 390 863 q 372 908 390 889 q 318 928 354 928 l 44 928 l 44 904 q 94 892 69 897 q 138 873 118 886 q 169 837 157 860 q 182 775 182 814 l 182 224 q 210 119 182 161 q 280 51 238 78 q 373 10 322 24 q 470 -10 424 -4 q 553 -18 517 -17 q 603 -19 590 -19 q 733 0 669 -14 q 847 35 797 14 q 926 82 896 56 q 956 138 956 108 l 956 863 q 938 908 956 889 q 883 928 919 928 l 606 928 l 606 904 q 653 892 629 897 q 697 874 678 886 q 729 840 717 861 q 743 782 742 819 l 743 157 q 731 137 740 144 q 706 124 721 129 q 675 117 692 119 q 644 113 658 114 q 565 109 607 107 q 487 124 524 111 q 424 160 450 136 q 390 224 397 185 l 390 863 m 636 1047 q 639 1024 636 1036 q 648 1000 642 1011 q 665 981 654 989 q 694 972 676 972 l 722 972 q 769 990 749 972 q 789 1043 789 1007 l 789 1317 l 765 1317 q 752 1267 758 1292 q 733 1223 746 1243 q 698 1191 721 1203 q 636 1179 675 1179 l 636 1047 m 292 1047 q 294 1024 292 1036 q 303 1000 297 1011 q 321 981 310 989 q 350 972 332 972 l 378 972 q 424 990 404 972 q 444 1043 444 1007 l 444 1317 l 421 1317 q 408 1267 414 1292 q 389 1223 401 1243 q 353 1191 376 1203 q 292 1179 331 1179 l 292 1047 z "},"":{"ha":983,"x_min":32,"x_max":947,"o":"m 583 914 q 396 920 482 935 q 242 859 310 906 q 126 736 174 813 q 56 558 78 660 q 43 376 32 465 q 98 212 54 286 q 215 84 142 138 q 390 10 289 31 q 580 6 492 -12 q 738 75 668 25 q 855 201 807 125 q 925 372 903 278 q 933 567 947 474 q 873 733 918 660 q 755 853 828 806 q 586 913 682 901 l 583 914 m 442 788 q 543 779 494 794 q 630 727 592 764 q 695 631 668 690 q 732 493 722 572 q 731 359 742 421 q 693 250 721 297 q 623 173 665 203 q 528 135 581 143 q 424 142 474 126 q 335 196 375 158 q 268 290 294 233 q 233 422 242 347 q 235 565 224 501 q 274 676 246 629 q 346 751 303 722 q 442 788 389 779 m 583 1038 q 586 1014 583 1026 q 595 990 589 1001 q 613 971 601 979 q 642 963 624 963 l 669 963 q 716 980 696 963 q 736 1033 736 997 l 736 1307 l 713 1307 q 699 1258 706 1282 q 681 1213 693 1233 q 645 1181 668 1193 q 583 1169 622 1169 l 583 1038 m 239 1038 q 242 1014 239 1026 q 251 990 244 1001 q 268 971 257 979 q 297 963 279 963 l 325 963 q 372 980 351 963 q 392 1033 392 997 l 392 1307 l 368 1307 q 355 1258 361 1282 q 336 1213 349 1233 q 301 1181 324 1193 q 239 1169 278 1169 l 239 1038 z "},"F":{"ha":815,"x_min":49,"x_max":829,"o":"m 474 401 l 631 401 q 671 406 660 401 q 692 439 682 410 l 708 563 q 707 585 713 578 q 689 596 701 593 q 660 599 676 599 q 625 599 643 599 l 500 599 q 458 592 474 599 q 435 572 443 585 q 422 538 426 558 q 417 488 418 517 l 396 488 l 396 732 q 408 773 397 758 q 439 794 418 788 q 492 802 460 801 q 574 803 525 803 q 637 799 604 803 q 700 782 669 794 q 756 747 731 769 q 799 686 782 724 q 815 672 801 674 q 829 686 829 669 l 817 871 q 808 903 817 892 q 784 919 800 914 q 747 926 768 925 q 703 926 726 926 l 49 926 l 49 903 q 98 890 74 896 q 142 872 122 885 q 174 835 161 858 q 186 774 186 813 l 186 67 q 205 20 186 40 q 260 0 224 0 l 533 0 l 533 24 q 484 35 508 29 q 440 53 460 40 q 408 88 421 65 q 396 151 396 110 l 396 335 q 397 356 396 344 q 406 376 399 367 q 428 393 413 386 q 472 401 443 400 l 474 401 z "},"E":{"ha":929,"x_min":46,"x_max":907,"o":"m 414 488 l 392 488 l 392 731 q 403 772 393 757 q 435 794 414 788 q 489 801 456 800 q 571 803 522 803 q 634 799 601 803 q 697 782 667 794 q 753 747 728 769 q 796 686 779 724 q 813 672 799 674 q 826 686 826 669 l 814 871 q 802 909 811 897 q 778 925 793 921 q 743 928 763 929 q 700 926 724 926 l 46 926 l 46 903 q 95 890 71 896 q 139 872 119 885 q 171 835 158 858 q 183 774 183 813 l 183 297 l 183 65 q 201 19 183 39 q 256 0 219 0 l 529 0 l 529 1 l 751 1 q 801 1 781 1 q 835 4 821 0 q 857 19 849 8 q 872 51 865 29 l 904 331 q 893 347 907 347 q 868 324 879 346 q 800 215 836 253 q 720 159 764 176 q 624 139 676 142 q 507 136 572 136 q 496 136 500 136 q 486 136 492 136 q 474 136 482 136 q 449 138 465 136 q 437 142 442 140 q 422 146 432 143 q 398 178 406 157 q 392 247 390 199 l 392 304 q 396 362 392 342 q 410 392 400 382 q 435 403 419 401 q 471 403 450 404 l 629 403 q 669 407 658 403 q 690 440 681 411 l 703 564 q 701 587 707 579 q 683 597 696 594 q 654 600 671 600 q 619 600 638 600 l 494 600 q 431 578 449 601 q 414 489 413 554 l 414 488 z "},"a":{"ha":774,"x_min":54,"x_max":774,"o":"m 179 569 q 119 566 143 569 q 90 525 96 563 l 79 392 q 90 382 79 381 q 101 392 100 383 q 211 460 144 444 q 353 475 278 475 l 386 475 q 420 456 413 475 q 428 410 428 438 l 428 378 l 322 378 q 226 360 274 378 q 140 312 179 342 q 78 243 101 282 q 54 163 54 204 q 67 95 54 128 q 102 38 79 63 q 158 -3 125 13 q 233 -18 192 -18 q 348 1 300 -18 q 428 60 396 19 q 447 18 429 36 q 500 0 465 0 l 774 0 l 774 24 q 726 35 750 29 q 682 53 701 42 q 650 87 663 65 q 636 144 638 108 l 636 410 q 621 510 636 482 q 610 528 617 518 q 592 547 604 538 q 563 563 581 557 q 517 569 544 569 q 179 569 356 579 m 428 356 l 428 263 q 399 142 428 183 q 322 100 371 100 q 281 119 300 100 q 263 171 263 139 q 271 205 263 190 q 290 228 279 219 q 310 242 300 238 q 324 247 321 247 q 357 256 342 247 q 383 281 372 265 q 400 315 394 296 q 406 356 406 335 l 428 356 z "},"b":{"ha":876,"x_min":40,"x_max":836,"o":"m 178 775 l 178 67 q 195 20 178 40 q 249 0 213 0 l 488 0 q 581 2 540 0 q 649 11 621 4 q 740 53 704 25 q 798 119 776 82 q 828 199 819 156 q 836 285 836 242 q 816 405 836 353 q 761 492 796 457 q 680 546 726 528 q 582 564 633 564 l 538 564 q 477 552 501 564 q 438 522 453 540 q 415 478 422 503 q 408 428 408 454 l 386 428 l 386 568 l 386 861 q 367 908 386 888 q 313 928 349 928 l 40 928 l 40 904 q 90 892 65 897 q 133 873 114 886 q 165 837 153 860 q 178 775 178 814 m 386 406 l 408 406 l 474 406 q 583 363 540 403 q 625 247 625 324 q 614 170 625 200 q 583 123 603 140 q 535 99 563 106 q 474 92 507 92 l 435 90 q 397 112 407 90 q 386 154 386 133 l 386 406 z "},"o":{"ha":750,"x_min":32,"x_max":711,"o":"m 364 482 q 451 420 419 482 q 483 244 483 358 q 455 114 483 161 q 379 67 426 67 q 290 128 319 67 q 260 308 260 190 q 288 435 260 389 q 364 482 315 482 m 32 275 q 122 60 32 139 q 371 -18 213 -18 q 513 1 450 -18 q 619 60 575 19 q 711 275 711 139 q 619 489 711 411 q 371 568 529 568 q 122 489 214 568 q 32 275 32 411 z "},"r":{"ha":703,"x_min":33,"x_max":681,"o":"m 549 469 q 603 448 592 469 q 621 388 615 426 q 629 376 621 381 q 642 382 638 371 l 676 493 q 677 520 681 510 q 665 537 674 531 q 644 547 657 543 q 615 557 631 551 q 579 564 596 564 q 553 564 564 564 q 487 562 513 564 q 445 547 461 560 q 422 507 429 535 q 410 428 414 479 l 379 428 l 379 500 q 361 546 379 526 q 307 565 343 565 l 33 565 l 33 542 q 83 529 58 535 q 126 510 107 524 q 158 474 146 497 q 171 413 171 451 l 171 65 q 189 19 171 39 q 243 0 207 0 l 517 0 l 517 24 q 467 35 492 29 q 424 55 443 42 q 392 90 404 68 q 379 153 379 113 l 379 179 q 393 272 379 221 q 431 366 407 322 q 485 440 454 410 q 549 469 515 469 z "},"c":{"ha":571,"x_min":44,"x_max":574,"o":"m 438 392 q 445 381 436 385 q 458 386 454 376 l 493 497 q 494 524 497 514 q 482 541 490 535 q 460 551 474 547 q 432 561 447 556 q 392 567 413 568 q 364 568 371 567 q 231 547 290 568 q 131 489 172 526 q 67 398 89 451 q 44 279 44 344 q 65 169 44 222 q 128 74 86 115 q 231 7 169 32 q 375 -18 293 -18 q 404 -17 392 -18 q 431 -3 417 -15 l 567 136 q 565 148 574 143 q 542 147 557 153 q 517 138 529 146 q 488 122 504 131 q 453 107 472 114 q 410 100 435 100 q 349 112 378 100 q 299 146 321 124 q 263 201 276 168 q 250 279 250 235 q 276 422 250 369 q 365 474 301 474 q 420 452 408 474 q 438 392 432 431 z "},"d":{"ha":883,"x_min":39,"x_max":836,"o":"m 697 863 q 679 908 697 889 q 625 928 661 928 l 351 928 l 351 904 q 401 892 376 897 q 444 873 425 886 q 476 837 464 860 q 489 775 489 814 l 489 564 l 386 564 q 258 546 321 564 q 147 492 196 528 q 69 405 99 457 q 39 285 39 353 q 47 199 39 242 q 77 119 56 156 q 135 53 99 82 q 226 11 171 25 q 294 2 254 4 q 388 0 335 0 l 554 0 l 561 0 l 836 0 l 836 24 q 787 36 811 29 q 742 56 763 43 q 710 91 722 68 q 697 154 697 114 l 697 863 m 489 543 l 489 149 q 476 110 488 129 q 439 92 465 92 l 408 92 q 346 99 375 92 q 296 123 317 106 q 263 170 275 140 q 250 247 250 200 q 290 362 250 318 q 386 406 329 406 q 424 417 408 406 q 449 449 440 429 q 463 492 458 468 q 467 543 467 517 l 489 543 z "},"e":{"ha":597,"x_min":44,"x_max":574,"o":"m 44 279 q 65 169 44 222 q 128 74 86 115 q 231 7 169 32 q 375 -18 293 -18 q 404 -17 392 -18 q 431 -3 417 -15 l 567 136 q 565 148 574 143 q 542 147 557 153 q 517 138 529 146 q 488 122 504 131 q 453 107 472 114 q 410 100 435 100 q 356 103 381 100 q 311 117 331 106 q 278 149 292 128 q 261 207 265 169 l 389 247 q 452 269 419 256 q 511 303 485 282 q 554 352 538 324 q 571 421 571 381 q 522 530 571 492 q 389 568 472 568 q 255 554 318 568 q 144 507 192 540 q 71 418 97 474 q 44 279 44 363 m 272 249 l 250 249 l 250 357 q 265 422 250 399 q 300 456 281 444 q 338 469 319 467 q 363 472 356 472 q 408 457 392 472 q 424 419 424 442 q 399 376 424 386 q 328 357 374 367 q 304 344 314 356 q 288 318 294 333 q 278 284 282 303 q 272 249 274 265 z "},"h":{"ha":918,"x_min":0,"x_max":918,"o":"m 572 65 q 590 19 572 39 q 644 0 608 0 l 918 0 l 918 24 q 869 35 893 29 q 825 55 844 42 q 793 90 806 68 q 781 153 781 113 l 781 386 q 767 453 781 421 q 730 510 754 485 q 672 549 706 535 q 594 564 638 564 l 454 564 q 417 551 433 564 q 391 517 401 538 q 375 474 381 497 q 369 429 369 450 l 346 429 l 346 686 l 346 861 q 328 907 346 888 q 274 926 310 926 l 0 926 l 0 903 q 49 890 25 896 q 93 872 74 885 q 125 835 113 858 q 138 774 138 813 l 138 146 l 138 65 q 156 19 138 39 q 210 0 174 0 l 483 0 l 483 24 q 434 35 458 29 q 390 55 410 42 q 358 90 371 68 q 346 153 346 113 l 346 340 l 346 406 l 488 406 q 547 390 522 406 q 572 342 572 374 l 572 65 z "},"g":{"ha":740,"x_min":26,"x_max":700,"o":"m 342 -176 q 170 -132 242 -176 q 64 17 99 -87 q 40 40 53 39 q 29 24 26 40 l 67 -243 q 158 -279 110 -267 q 251 -298 207 -292 q 330 -306 296 -304 q 378 -307 364 -307 q 504 -293 446 -307 q 606 -253 563 -279 q 675 -191 650 -226 q 700 -111 700 -156 l 699 501 q 681 548 699 528 q 628 568 664 568 l 389 568 q 296 566 336 568 q 228 557 256 564 q 136 514 172 542 q 78 449 100 486 q 49 369 57 413 q 40 283 40 326 q 60 163 40 215 q 115 76 81 111 q 197 22 150 40 q 294 4 243 4 l 339 4 q 399 16 374 4 q 439 47 424 28 q 461 90 454 65 q 468 140 468 114 l 490 140 l 490 0 l 490 -111 q 476 -138 490 -126 q 440 -158 463 -150 q 392 -172 418 -167 q 342 -176 367 -176 m 490 163 l 403 163 q 292 208 332 165 q 251 321 251 250 q 285 381 251 356 q 386 406 319 406 l 440 406 q 478 384 468 406 q 489 342 489 363 l 490 163 z "},"f":{"ha":581,"x_min":58,"x_max":581,"o":"m 344 406 l 414 406 q 454 410 443 406 q 475 443 465 414 l 492 528 q 490 551 496 543 q 472 561 485 558 q 443 564 460 564 q 408 564 426 564 l 372 564 q 335 553 351 564 q 309 527 319 543 q 293 491 299 511 q 288 450 288 471 l 267 449 l 267 717 q 299 770 268 746 q 378 796 331 794 q 477 772 432 792 q 550 689 522 751 q 567 674 553 676 q 581 689 581 672 q 576 781 578 747 q 572 832 574 814 q 570 858 571 850 q 568 872 569 865 q 554 896 568 886 q 518 912 540 906 q 470 921 496 918 q 422 926 444 924 q 385 928 400 928 q 368 928 369 928 q 252 915 307 928 q 154 876 197 901 q 85 810 111 850 q 58 715 60 769 l 58 65 q 76 19 58 39 q 131 0 94 0 l 404 0 l 404 24 q 355 35 379 29 q 311 55 331 42 q 279 90 292 68 q 267 153 267 113 l 267 342 q 291 384 269 363 q 344 406 313 406 z "},"i":{"ha":536,"x_min":50,"x_max":533,"o":"m 396 151 l 396 424 l 396 504 q 378 549 396 529 q 324 569 360 568 l 188 569 l 188 422 l 188 150 l 188 64 q 206 18 188 38 q 260 -1 224 -1 l 533 -1 l 533 22 q 484 34 508 28 q 440 53 460 40 q 408 89 421 67 q 396 151 396 111 m 326 688 q 372 706 347 689 q 396 757 396 722 l 396 860 q 378 906 396 886 q 324 925 360 925 l 50 925 l 50 901 q 99 888 75 894 q 143 867 124 881 q 175 830 163 854 q 188 767 188 806 l 188 688 l 326 688 z "},"j":{"ha":478,"x_min":39,"x_max":389,"o":"m 178 -40 q 170 -94 176 -61 q 151 -165 164 -126 q 117 -247 138 -204 q 65 -328 96 -289 q 63 -340 60 -335 q 73 -347 67 -344 q 86 -349 79 -349 q 94 -346 93 -349 l 339 -115 q 389 -4 389 -68 l 389 500 q 371 547 389 526 q 317 568 353 568 l 178 568 l 178 -40 m 315 690 q 360 708 336 692 q 385 760 385 725 l 385 863 q 367 908 385 889 q 313 928 349 928 l 39 928 l 39 904 q 88 890 64 897 q 132 870 113 883 q 164 833 151 857 q 176 769 176 808 l 176 690 l 315 690 z "},"l":{"ha":533,"x_min":50,"x_max":533,"o":"m 188 774 l 188 146 l 188 65 q 206 19 188 39 q 260 0 224 0 l 533 0 l 533 24 q 484 35 508 29 q 440 55 460 42 q 408 90 421 68 q 396 153 396 113 l 396 775 l 396 861 q 378 907 396 888 q 324 926 360 926 l 50 926 l 50 903 q 99 890 75 896 q 143 872 124 885 q 175 835 163 858 q 188 774 188 813 z "},"k":{"ha":965,"x_min":43,"x_max":926,"o":"m 181 64 q 199 18 181 38 q 253 -1 217 -1 l 526 -1 l 526 22 q 477 34 501 28 q 433 53 453 40 q 401 89 414 67 q 389 151 389 111 l 389 224 q 402 242 392 235 q 428 249 413 249 q 438 249 438 249 q 470 238 456 249 q 497 211 485 228 l 615 39 q 645 12 626 24 q 700 0 664 0 l 926 0 l 926 15 q 881 27 899 22 q 850 40 863 32 q 827 59 838 47 q 804 92 817 71 l 696 257 q 647 288 681 279 q 564 296 613 296 q 549 297 544 293 q 567 307 554 300 l 849 511 q 879 540 875 529 q 874 558 883 551 q 847 566 865 564 q 810 568 828 568 l 524 568 l 524 554 q 565 547 542 550 q 602 539 588 544 q 616 524 617 533 q 586 497 615 514 l 389 351 l 389 860 q 371 906 389 886 q 317 925 353 925 l 43 926 l 43 903 q 92 890 68 896 q 136 871 117 883 q 168 835 156 858 q 181 772 181 811 l 181 64 z "},"p":{"ha":825,"x_min":43,"x_max":813,"o":"m 181 411 l 179 -242 q 197 -287 179 -268 q 251 -307 215 -307 l 525 -307 l 525 -283 q 476 -272 500 -278 q 432 -252 451 -265 q 400 -217 413 -239 q 388 -154 388 -194 l 389 -19 q 418 18 390 18 q 515 54 471 38 q 613 94 558 71 q 702 160 661 118 q 769 253 743 203 q 804 356 796 303 q 796 453 813 408 q 735 529 779 499 q 613 565 692 560 l 43 565 l 43 542 q 92 528 68 535 q 136 510 117 522 q 168 474 156 497 q 181 411 181 450 m 413 72 l 389 72 l 389 392 q 390 438 390 422 q 398 459 390 453 q 424 465 406 465 q 483 465 443 465 q 559 434 532 465 q 590 360 586 403 q 570 276 593 318 q 497 210 547 233 q 460 196 476 210 q 434 161 444 182 q 418 117 424 140 q 413 72 413 93 z "},"q":{"ha":821,"x_min":33,"x_max":803,"o":"m 665 -154 q 665 88 665 -11 q 665 251 665 186 q 665 358 665 318 q 664 422 664 397 q 664 463 664 447 q 664 497 664 478 q 647 544 664 524 q 593 565 629 565 l 233 565 q 110 529 154 560 q 50 453 67 499 q 42 356 33 408 q 76 253 50 303 q 144 160 103 203 q 233 94 185 118 q 331 54 288 71 q 428 18 375 38 q 457 -19 456 18 l 457 -242 q 475 -287 457 -268 q 529 -307 493 -307 l 803 -307 l 803 -283 q 753 -272 778 -278 q 710 -252 729 -265 q 678 -217 690 -239 q 665 -154 665 -194 m 433 72 q 428 117 433 93 q 412 161 422 140 q 385 196 401 182 q 349 210 369 210 q 276 276 299 233 q 256 360 253 318 q 287 434 260 403 q 363 465 314 465 q 421 465 401 465 q 448 459 440 465 q 456 438 456 453 q 457 392 456 422 l 457 72 l 433 72 z "},"n":{"ha":917,"x_min":0,"x_max":933,"o":"m 515 468 q 570 447 558 468 q 588 386 582 425 l 588 383 l 588 65 q 606 19 588 39 q 660 0 624 0 l 933 0 l 933 24 q 884 36 908 29 q 840 56 860 43 q 808 92 821 69 q 796 156 796 115 l 796 499 q 779 544 796 525 q 726 564 763 564 q 519 564 625 578 q 431 529 460 564 q 376 426 403 494 l 346 426 l 346 499 q 328 544 346 525 q 274 564 310 564 l 0 564 l 0 540 q 49 528 25 533 q 93 509 74 522 q 125 473 113 496 q 138 411 138 450 l 138 65 q 156 19 138 39 q 210 0 174 0 l 483 0 l 483 24 q 434 35 458 29 q 390 55 410 42 q 358 90 371 68 q 346 153 346 113 l 346 178 q 360 270 346 219 q 397 365 374 321 q 451 438 421 408 q 515 468 482 468 z "},"m":{"ha":1404,"x_min":21,"x_max":1404,"o":"m 986 469 q 1041 448 1029 469 q 1058 388 1053 426 l 1058 65 q 1076 19 1058 39 q 1131 0 1094 0 l 1404 0 l 1404 24 q 1355 36 1379 29 q 1311 57 1331 43 q 1279 94 1292 71 q 1267 157 1267 117 l 1267 500 q 1250 546 1267 526 q 1197 565 1233 565 q 1094 572 1144 572 q 990 564 1043 571 q 902 530 931 564 q 847 428 874 496 l 817 428 l 817 500 q 794 547 815 528 q 744 565 772 567 l 742 564 q 643 570 693 569 q 544 564 593 571 q 454 529 485 564 q 397 426 424 494 l 367 426 l 367 499 q 349 544 367 525 q 294 564 331 564 l 21 564 l 21 540 q 70 528 46 533 q 114 509 94 522 q 146 473 133 496 q 158 411 158 450 l 158 65 q 176 19 158 39 q 231 0 194 0 l 504 0 l 504 24 q 455 35 479 29 q 411 55 431 42 q 379 90 392 68 q 367 153 367 113 l 367 178 q 381 270 367 219 q 418 365 394 321 q 472 438 442 408 q 536 468 503 468 q 591 447 579 468 q 608 386 603 425 l 608 67 l 608 61 q 628 18 610 36 q 681 0 646 0 l 954 0 l 954 25 q 903 40 928 32 q 860 60 879 47 q 830 93 842 72 q 817 147 818 114 l 817 179 q 831 272 817 221 q 868 366 844 322 q 922 440 892 410 q 986 469 953 469 z "},"w":{"ha":1264,"x_min":-42,"x_max":1257,"o":"m 751 533 q 733 557 742 549 q 693 565 725 565 l 429 565 l 429 540 q 470 533 451 536 q 505 524 489 531 q 533 508 521 518 q 554 479 544 497 l 567 458 l 454 236 q 444 226 447 224 q 435 236 440 228 l 281 533 q 263 557 271 549 q 222 565 254 565 l -42 565 l -42 540 q -1 533 -19 536 q 31 524 17 531 q 57 508 46 518 q 78 479 68 497 l 336 39 q 367 5 353 10 q 401 0 382 0 l 476 0 q 497 1 489 0 q 512 6 506 1 q 524 17 518 10 q 538 40 531 25 l 664 286 l 807 39 q 838 5 824 10 q 872 0 853 0 l 947 0 q 968 1 960 0 q 983 6 976 1 q 995 17 989 10 q 1008 40 1001 25 l 1242 500 q 1253 547 1257 531 q 1204 565 1249 564 l 940 565 l 940 540 q 983 533 961 536 q 1024 523 1006 529 q 1051 506 1042 517 q 1053 478 1060 496 l 925 236 q 915 226 918 224 q 906 236 911 228 l 751 533 z "},"v":{"ha":810,"x_min":-32,"x_max":796,"o":"m 290 533 q 272 557 281 549 q 232 565 264 565 l -32 565 l -32 540 q 8 533 -10 536 q 41 524 26 531 q 67 508 56 518 q 88 479 78 497 l 346 42 q 377 8 363 13 q 411 3 392 3 l 486 3 q 507 3 499 3 q 522 8 515 4 q 534 20 528 13 q 547 43 540 28 l 781 500 q 792 547 796 531 q 743 565 788 564 l 479 565 l 479 540 q 522 533 500 536 q 563 523 544 529 q 590 506 581 517 q 592 478 599 496 l 464 239 q 453 228 457 226 q 444 239 450 231 l 290 533 z "},"y":{"ha":860,"x_min":18,"x_max":846,"o":"m 340 533 q 322 557 331 549 q 282 565 314 565 l 18 565 l 18 540 q 58 533 40 536 q 91 524 76 531 q 117 508 106 518 q 138 479 128 497 l 396 42 l 396 40 q 419 -33 413 3 q 419 -97 425 -68 q 392 -147 413 -126 q 335 -178 371 -168 q 163 -133 235 -178 q 57 15 92 -89 q 33 38 46 38 q 22 22 19 39 l 60 -244 q 142 -281 103 -268 q 214 -299 181 -293 q 272 -306 247 -304 q 310 -307 296 -307 q 500 -271 433 -307 q 592 -185 567 -235 q 619 -82 618 -135 q 611 4 619 -29 q 601 40 603 38 l 831 500 q 842 547 846 531 q 793 565 838 564 l 529 565 l 529 540 q 572 533 550 536 q 613 523 594 529 q 640 506 631 517 q 642 478 649 496 l 521 238 q 510 227 514 225 q 501 238 507 229 l 340 533 z "},"x":{"ha":786,"x_min":-51,"x_max":831,"o":"m 269 532 q 261 543 265 538 q 251 553 257 549 q 237 560 246 557 q 213 563 228 563 l -51 563 l -51 539 q 23 529 -7 533 q 72 501 53 525 l 244 315 l 22 40 q 11 11 7 21 q 58 0 15 1 l 322 0 l 322 24 q 277 26 300 25 q 236 28 254 26 q 210 36 218 31 q 208 54 201 42 l 325 207 q 335 213 332 214 q 344 207 339 213 l 514 25 q 522 16 518 21 q 530 8 525 11 q 543 2 535 4 q 568 0 551 0 l 831 0 l 831 24 q 760 28 790 24 q 710 57 729 32 l 535 246 l 758 513 q 769 547 774 532 q 721 563 764 561 l 457 563 l 457 539 q 500 534 478 536 q 540 528 522 532 q 566 517 557 524 q 569 500 575 511 l 453 356 q 442 349 446 349 q 433 356 439 350 l 269 532 z "},"t":{"ha":685,"x_min":4,"x_max":675,"o":"m 86 564 q 47 559 58 564 q 25 526 35 554 l 8 439 q 10 415 4 422 q 29 404 17 407 q 58 402 42 401 q 93 403 75 403 l 129 403 q 167 413 150 403 q 194 441 183 424 q 210 480 204 458 q 215 522 215 501 l 236 522 l 238 522 l 238 65 q 256 19 238 39 q 310 0 274 0 l 583 0 l 583 24 q 534 35 558 29 q 490 55 510 42 q 458 90 471 68 q 446 153 446 113 l 446 343 q 470 385 449 364 q 524 406 492 406 l 593 406 q 633 410 622 406 q 654 443 644 414 l 671 528 q 669 551 675 543 q 651 561 664 558 q 622 564 639 564 q 588 564 606 564 l 551 564 q 515 553 531 564 q 488 526 499 543 q 472 489 478 510 q 467 449 467 468 l 446 449 l 446 861 q 428 907 446 888 q 374 926 410 926 l 100 926 l 100 903 q 148 890 124 896 q 192 872 172 885 q 224 839 211 860 q 238 781 236 818 q 195 619 238 672 q 86 564 153 565 z "},"z":{"ha":724,"x_min":22,"x_max":704,"o":"m 388 476 l 599 476 l 581 460 q 527 458 557 460 q 469 451 497 456 q 419 440 442 447 q 389 421 397 432 l 42 75 q 28 56 33 68 q 23 31 22 43 q 33 10 24 19 q 67 1 43 1 l 576 1 q 611 1 597 1 q 636 3 626 1 q 652 12 646 6 q 664 32 658 18 l 686 210 q 678 220 689 221 q 660 206 668 219 q 611 139 636 163 q 556 105 586 115 q 490 93 526 94 q 407 92 453 92 l 344 92 q 317 92 325 92 q 310 99 308 93 q 322 115 311 104 q 349 147 332 126 l 678 476 q 698 504 692 489 q 701 533 704 519 q 685 555 699 546 q 649 564 672 564 l 122 564 q 67 561 89 564 q 40 525 46 558 l 32 404 q 42 395 32 394 q 53 404 51 396 q 118 450 81 435 q 199 471 156 465 q 289 476 242 476 q 388 476 338 476 z "},"s":{"ha":636,"x_min":44,"x_max":590,"o":"m 139 182 q 122 194 138 197 q 100 182 107 190 l 49 81 q 45 63 44 69 q 50 53 46 57 q 59 46 54 49 q 67 42 64 43 q 138 6 100 18 q 211 -12 176 -7 q 272 -17 246 -17 q 308 -17 300 -17 q 521 25 451 -17 q 590 160 590 67 q 574 253 590 218 q 528 306 557 288 q 463 333 500 325 q 387 345 426 340 q 308 356 347 350 q 235 378 269 363 q 202 408 213 392 q 197 438 192 424 q 224 463 201 453 q 289 472 246 472 q 354 464 332 468 q 390 451 376 460 q 417 426 404 443 q 454 381 429 410 q 469 373 460 371 q 486 390 479 375 l 517 486 q 518 507 525 500 q 500 521 511 514 q 461 546 481 535 q 418 563 442 557 q 363 573 394 569 q 288 576 331 576 q 195 566 239 575 q 118 537 151 557 q 65 485 85 517 q 46 407 46 453 q 77 286 46 325 q 158 231 108 247 q 271 211 208 215 q 399 193 333 207 q 429 165 422 182 q 426 131 436 147 q 390 103 417 115 q 321 92 364 92 q 243 95 274 92 q 193 108 213 99 q 161 135 174 118 q 139 182 149 153 z "},"":{"ha":958,"x_min":43,"x_max":946,"o":"m 388 153 l 388 497 q 370 544 388 524 q 317 564 353 564 l 43 564 l 43 540 q 92 528 68 533 q 136 509 117 522 q 167 473 156 496 q 179 411 179 450 l 178 67 q 196 26 178 43 q 243 -3 214 8 q 310 -19 272 -14 q 388 -25 347 -25 q 461 -20 424 -25 q 529 -5 499 -15 q 579 23 560 6 q 600 65 599 40 q 618 19 600 39 q 672 0 636 0 l 946 -1 l 946 22 q 897 34 921 28 q 853 53 872 40 q 822 89 833 67 q 810 151 810 111 l 807 497 q 792 544 807 524 q 740 564 776 564 l 490 565 l 490 542 q 535 528 515 535 q 571 510 556 522 q 594 474 586 497 q 601 411 601 450 l 601 153 q 590 97 601 119 q 563 59 579 74 q 528 38 547 44 q 490 32 508 32 q 454 38 472 32 q 421 59 436 44 q 397 97 406 74 q 388 153 388 119 m 579 743 q 582 719 579 732 q 591 696 585 707 q 608 676 597 685 q 638 668 619 668 l 665 668 q 712 685 692 668 q 732 739 732 703 l 732 1013 l 708 1013 q 695 963 701 988 q 676 919 689 939 q 641 887 664 899 q 579 875 618 875 l 579 743 m 235 743 q 238 719 235 732 q 247 696 240 707 q 264 676 253 685 q 293 668 275 668 l 321 668 q 367 685 347 668 q 388 739 388 703 l 388 1013 l 364 1013 q 351 963 357 988 q 332 919 344 939 q 297 887 319 899 q 235 875 274 875 l 235 743 z "},"":{"ha":750,"x_min":32,"x_max":711,"o":"m 364 501 q 414 483 392 501 q 451 430 436 464 q 475 349 467 396 q 483 244 483 301 q 455 114 483 161 q 379 67 426 67 q 290 138 319 67 q 260 328 260 210 q 288 455 260 408 q 364 501 315 501 m 32 275 q 122 60 32 139 q 371 -18 213 -18 q 513 1 450 -18 q 619 60 575 19 q 711 275 711 139 q 688 406 711 343 q 619 508 665 469 q 371 588 529 588 q 122 508 214 588 q 55 406 78 469 q 32 275 32 343 m 467 742 q 469 718 467 731 q 478 694 472 706 q 496 675 485 683 q 525 667 507 667 l 553 667 q 599 684 579 667 q 619 738 619 701 l 619 1011 l 596 1011 q 583 962 589 986 q 564 917 576 938 q 528 885 551 897 q 467 874 506 874 l 467 742 m 122 742 q 125 718 122 731 q 134 694 128 706 q 151 675 140 683 q 181 667 163 667 l 208 667 q 255 684 235 667 q 275 738 275 701 l 275 1011 l 251 1011 q 238 962 244 986 q 219 917 232 938 q 184 885 207 897 q 122 874 161 874 l 122 742 z "},"":{"ha":774,"x_min":54,"x_max":774,"o":"m 179 569 q 119 566 143 569 q 90 525 96 563 l 79 392 q 90 382 79 381 q 101 392 100 383 q 211 460 144 444 q 353 475 278 475 l 386 475 q 420 456 413 475 q 428 410 428 438 l 428 378 l 322 378 q 226 360 274 378 q 140 312 179 342 q 78 243 101 282 q 54 163 54 204 q 67 95 54 128 q 102 38 79 63 q 158 -3 125 13 q 233 -18 192 -18 q 348 1 300 -18 q 428 60 396 19 q 447 18 429 36 q 500 0 465 0 l 774 0 l 774 24 q 726 35 750 29 q 682 53 701 42 q 650 87 663 65 q 636 144 638 108 l 636 410 q 621 510 636 482 q 610 528 617 518 q 592 547 604 538 q 563 563 581 557 q 517 569 544 569 q 179 569 356 579 m 428 356 l 428 263 q 399 142 428 183 q 322 100 371 100 q 281 119 300 100 q 263 171 263 139 q 271 205 263 190 q 290 228 279 219 q 310 242 300 238 q 324 247 321 247 q 357 256 342 247 q 383 281 372 265 q 400 315 394 296 q 406 356 406 335 l 428 356 m 485 736 q 488 713 485 725 q 497 689 490 700 q 514 669 503 678 q 543 661 525 661 l 571 661 q 617 678 597 661 q 638 732 638 696 l 638 1006 l 614 1006 q 601 956 607 981 q 582 912 594 932 q 547 880 569 892 q 485 868 524 868 l 485 736 m 140 736 q 143 713 140 725 q 152 689 146 700 q 169 669 158 678 q 199 661 181 661 l 226 661 q 273 678 253 661 q 293 732 293 696 l 293 1006 l 269 1006 q 256 956 263 981 q 238 912 250 932 q 202 880 225 892 q 140 868 179 868 l 140 736 z "},"@":{"ha":1247,"x_min":22,"x_max":1233,"o":"m 844 -128 l 1039 39 q 1039 58 1050 50 q 1007 56 1028 65 q 919 40 956 44 q 849 36 882 36 q 781 40 817 36 q 696 50 746 44 q 545 34 624 39 q 395 49 467 29 q 265 123 324 69 q 175 282 207 176 q 171 503 144 407 q 265 667 197 600 q 432 768 332 733 q 651 806 532 803 q 817 785 736 800 q 967 738 899 771 q 1085 647 1035 704 q 1157 497 1135 589 q 1167 397 1163 456 q 1159 286 1172 339 q 1105 197 1146 233 q 978 161 1064 161 q 926 194 947 172 q 904 265 906 217 l 904 531 q 889 631 904 603 q 878 649 885 639 q 860 668 872 658 q 831 684 849 678 q 785 690 813 690 q 447 690 624 700 q 388 687 411 690 q 358 646 364 683 l 347 513 q 358 503 347 501 q 369 513 368 504 q 479 581 413 565 q 621 596 546 596 l 654 596 q 688 577 681 596 q 696 531 696 558 l 696 499 l 590 499 q 494 481 542 499 q 408 433 447 463 q 346 364 369 403 q 322 283 322 325 q 335 216 322 249 q 370 158 347 183 q 426 118 393 133 q 501 103 460 103 q 616 122 568 103 q 696 181 664 140 q 715 139 697 157 q 768 121 733 121 l 1042 121 q 1163 172 1119 121 q 1220 304 1207 224 q 1217 482 1233 385 q 1160 669 1201 579 q 1055 833 1119 760 q 907 936 990 906 q 711 981 811 963 q 512 1002 611 1000 q 316 985 413 1004 q 131 914 219 965 q 122 754 131 817 q 98 643 113 692 q 66 550 83 594 q 33 446 49 506 q 22 307 22 374 q 40 184 22 242 q 94 79 57 126 q 196 -3 132 32 q 308 -53 247 -31 q 445 -93 368 -76 q 619 -119 522 -110 q 844 -128 717 -128 m 696 476 l 696 383 q 667 263 696 304 q 590 221 639 221 q 549 240 568 221 q 531 292 531 260 q 539 326 531 311 q 558 349 547 340 q 578 363 568 358 q 592 368 589 368 q 625 377 610 368 q 651 401 640 386 q 668 436 663 417 q 674 476 674 456 l 696 476 z "},"{":{"ha":500,"x_min":122,"x_max":478,"o":"m 203 339 q 217 353 203 342 q 251 380 232 364 q 287 416 269 396 q 310 458 304 436 q 315 505 317 481 q 305 554 313 529 q 288 603 297 579 q 268 649 278 626 q 251 744 246 704 q 284 809 256 783 q 362 851 313 835 q 478 875 411 867 q 381 956 458 929 q 285 926 329 953 q 209 863 242 900 q 158 785 176 826 q 136 714 139 744 q 146 628 132 663 q 177 570 160 594 q 210 526 194 546 q 225 486 225 507 q 203 438 225 465 q 124 371 181 411 l 129 311 q 200 240 181 268 q 219 189 219 211 q 202 147 218 167 q 169 104 186 128 q 137 48 151 81 q 125 -33 122 15 q 143 -108 125 -67 q 192 -185 161 -149 q 267 -247 224 -221 q 361 -275 311 -272 q 426 -241 401 -261 q 461 -196 450 -221 q 349 -169 399 -185 q 271 -129 300 -154 q 237 -66 242 -104 q 260 29 232 -28 q 281 74 269 50 q 300 124 292 99 q 312 173 308 149 q 308 218 315 197 q 285 260 303 240 q 250 297 268 281 q 217 324 232 313 q 203 339 203 335 z "},"|":{"ha":247,"x_min":104,"x_max":197,"o":"m 104 932 l 104 -290 l 197 -290 l 197 932 l 104 932 z "},"}":{"ha":440,"x_min":67,"x_max":421,"o":"m 342 339 q 328 324 342 335 q 296 296 314 313 q 260 259 278 279 q 235 218 243 239 q 230 173 228 197 q 240 124 232 149 q 257 74 247 99 q 276 29 267 50 q 296 -65 301 -26 q 260 -128 290 -103 q 181 -169 231 -154 q 67 -196 131 -185 q 163 -275 86 -249 q 259 -246 215 -272 q 335 -183 303 -219 q 386 -106 367 -147 q 408 -33 406 -65 q 401 50 414 17 q 371 107 389 83 q 336 149 353 131 q 319 190 319 168 q 340 238 318 211 q 421 307 363 265 l 415 367 q 342 437 363 408 q 324 487 322 465 q 340 528 325 508 q 374 573 356 549 q 407 631 393 597 q 419 714 421 664 q 401 787 419 746 q 351 864 383 828 q 276 926 319 900 q 183 956 233 953 q 83 875 103 929 q 195 851 146 867 q 274 810 244 836 q 308 744 303 783 q 285 649 313 704 q 263 603 274 628 q 243 554 251 579 q 232 504 235 529 q 236 458 229 479 q 258 417 242 438 q 294 380 275 396 q 327 353 313 364 q 342 339 342 342 z "},"~":{"ha":810,"x_min":57,"x_max":772,"o":"m 96 172 q 116 197 96 172 q 165 248 136 221 q 228 295 194 275 q 292 307 263 315 q 343 281 319 299 q 396 250 367 264 q 464 233 425 236 q 560 250 503 231 q 658 310 618 268 q 724 395 699 353 q 760 469 749 438 q 772 501 772 501 l 732 558 q 708 540 732 558 q 650 496 685 521 q 578 448 615 471 q 515 419 542 425 q 463 430 489 414 q 404 462 436 446 q 333 484 372 478 q 240 465 293 490 q 152 398 188 440 q 96 316 117 356 q 66 247 75 276 q 57 218 57 218 l 96 172 z "},"u":{"ha":917,"x_min":-22,"x_max":911,"o":"m 396 96 q 341 117 353 96 q 324 178 329 139 l 324 181 l 324 499 q 306 544 324 525 q 251 564 288 564 l -22 565 l -22 542 q 27 528 3 535 q 71 508 51 522 q 103 471 90 494 q 115 408 115 447 l 115 65 q 132 19 115 39 q 185 0 149 0 q 392 0 286 -14 q 480 35 451 0 q 535 138 508 69 l 565 138 l 565 65 q 583 19 565 39 q 638 0 601 0 l 911 -1 l 911 22 q 862 35 886 28 q 818 54 838 42 q 786 90 799 67 q 774 153 774 113 l 774 499 q 756 544 774 525 q 701 564 738 564 l 428 564 l 428 540 q 477 528 453 533 q 521 509 501 522 q 553 473 540 496 q 565 411 565 450 l 565 386 q 551 294 565 344 q 514 199 538 243 q 460 126 490 156 q 396 96 429 96 z "},";":{"ha":281,"x_min":39,"x_max":193,"o":"m 192 181 q 189 203 192 190 q 179 228 186 217 q 160 247 172 239 q 131 254 149 254 l 103 254 q 58 236 76 254 q 39 182 39 218 l 40 -137 l 64 -137 q 76 -80 69 -112 q 94 -17 82 -47 q 129 33 107 13 q 192 54 151 54 l 192 181 m 192 654 q 189 677 192 664 q 180 701 186 690 q 163 721 174 713 q 133 729 151 729 l 106 729 q 60 708 79 729 q 40 651 40 688 l 40 408 l 64 408 q 77 458 71 433 q 96 502 83 482 q 131 534 108 522 q 193 546 153 546 l 192 654 z "},".":{"ha":281,"x_min":40,"x_max":196,"o":"m 40 65 q 43 42 40 54 q 53 18 46 29 q 72 -1 60 7 q 101 -8 83 -8 l 129 -8 q 174 10 156 -8 q 193 64 193 28 l 196 296 l 172 296 q 160 247 167 271 q 140 204 154 224 q 103 173 126 185 q 40 161 79 161 l 40 65 z "},",":{"ha":281,"x_min":39,"x_max":192,"o":"m 192 181 q 189 203 192 190 q 179 228 186 217 q 160 247 172 239 q 131 254 149 254 l 103 254 q 58 236 76 254 q 39 182 39 218 l 40 -137 l 64 -137 q 76 -80 69 -112 q 94 -17 82 -47 q 129 33 107 13 q 192 54 151 54 l 192 181 z "},"":{"ha":1393,"x_min":26,"x_max":1356,"o":"m 501 568 q 565 643 539 597 q 606 741 590 689 q 629 844 622 793 q 636 936 636 896 q 658 862 649 904 q 671 772 667 819 q 674 673 675 724 q 667 574 674 622 q 744 589 713 586 q 797 586 775 592 q 838 567 819 581 q 878 533 857 553 q 833 546 853 539 q 791 554 814 553 q 739 547 768 556 q 667 514 710 539 l 661 446 l 701 489 q 758 519 724 514 q 826 510 793 524 q 881 465 858 497 q 903 383 904 433 q 877 301 899 336 q 825 241 856 267 q 758 197 794 215 q 688 163 722 178 q 626 133 654 147 q 585 101 599 118 q 545 60 560 86 q 528 3 531 33 q 536 -57 525 -26 q 575 -111 547 -87 q 607 -141 590 -132 q 642 -153 624 -150 q 679 -158 660 -157 q 719 -165 699 -160 q 650 -172 683 -175 q 588 -156 617 -168 q 538 -123 560 -143 q 500 -79 515 -103 q 479 -28 483 -53 q 479 18 475 -3 q 493 54 483 39 q 514 78 503 69 q 555 113 529 97 q 610 144 581 129 q 667 171 639 158 q 715 196 696 183 q 806 263 771 218 q 852 355 842 308 q 846 439 863 401 q 781 485 829 476 q 713 470 736 488 q 661 418 689 453 q 640 367 653 407 q 610 281 626 326 q 576 197 594 236 q 540 150 558 158 q 585 264 569 203 q 610 379 601 325 q 620 471 618 433 q 624 514 622 508 q 565 501 604 508 q 492 485 525 494 q 507 510 492 499 q 544 531 522 522 q 589 547 565 540 q 629 556 613 553 l 633 635 q 636 687 633 654 q 639 746 639 719 q 638 774 639 772 q 631 729 635 757 q 615 670 628 701 q 573 608 601 639 q 492 557 544 578 l 501 568 m 1356 258 l 1356 242 l 1353 236 l 1343 235 l 1343 228 l 1339 231 l 1339 228 l 1333 235 q 1328 231 1333 231 l 1328 235 q 1296 244 1310 244 q 1283 251 1294 244 q 1276 256 1278 254 q 1271 258 1275 258 l 1267 261 l 1253 261 l 1250 268 l 1249 267 q 1233 269 1246 269 q 1227 274 1231 272 q 1222 279 1224 276 l 1218 275 q 1214 276 1218 275 q 1207 282 1210 278 q 1197 283 1206 283 q 1192 286 1194 283 l 1179 279 q 1165 290 1172 285 q 1151 301 1158 294 l 1150 300 l 1150 286 l 1147 263 l 1150 260 l 1144 250 q 1145 247 1144 250 q 1147 236 1146 243 q 1140 219 1142 232 q 1131 188 1138 207 l 1126 200 l 1122 204 q 1119 210 1119 211 q 1118 215 1118 208 l 1111 218 l 1111 224 q 1110 239 1111 229 q 1108 256 1108 249 q 1110 281 1108 265 q 1113 319 1111 297 q 1117 355 1117 340 q 1118 379 1118 369 q 1119 389 1118 386 q 1119 399 1119 392 l 1119 413 l 1118 415 q 1119 426 1118 421 q 1119 435 1119 431 l 1119 446 q 1120 451 1119 450 q 1121 454 1121 451 q 1120 460 1121 457 q 1119 464 1119 463 l 1121 471 l 1119 478 q 1121 490 1121 479 q 1122 503 1122 492 q 1123 506 1122 503 q 1125 517 1124 510 q 1126 533 1126 518 l 1126 549 q 1127 558 1126 553 q 1131 574 1128 564 q 1129 581 1131 579 q 1128 583 1128 583 q 1129 613 1128 601 q 1132 632 1131 625 l 1131 635 l 1132 643 l 1131 654 q 1133 663 1133 657 l 1144 667 l 1151 656 l 1151 654 q 1160 640 1157 649 q 1168 622 1163 632 l 1165 614 q 1169 606 1169 614 q 1165 525 1169 568 l 1165 503 q 1165 495 1165 500 q 1163 483 1164 490 q 1161 467 1161 482 l 1163 458 l 1165 456 q 1173 469 1165 460 q 1188 483 1181 478 q 1207 507 1188 488 q 1219 522 1215 518 q 1224 526 1222 526 q 1253 568 1228 536 q 1278 591 1271 583 q 1289 600 1286 599 q 1294 608 1290 604 q 1301 619 1297 613 q 1313 630 1308 626 q 1319 638 1317 633 q 1333 654 1321 654 q 1345 619 1340 632 q 1350 600 1350 607 q 1347 589 1350 589 q 1343 581 1344 588 q 1339 567 1342 574 q 1322 550 1339 564 q 1321 539 1321 549 q 1318 532 1321 535 l 1318 529 q 1313 526 1315 529 l 1310 525 l 1310 522 q 1308 508 1301 514 l 1306 506 q 1298 499 1300 501 q 1293 496 1296 496 l 1290 490 q 1276 478 1282 486 q 1258 471 1269 471 q 1250 464 1253 471 q 1243 458 1249 458 q 1239 449 1240 453 q 1233 439 1238 444 l 1232 439 q 1229 438 1232 439 q 1224 435 1226 438 q 1222 433 1222 433 q 1221 428 1221 432 l 1218 425 l 1217 425 q 1214 424 1215 424 q 1212 421 1213 422 q 1210 418 1211 419 q 1204 410 1206 414 q 1196 400 1200 406 q 1192 389 1192 394 q 1188 383 1188 386 q 1174 368 1182 383 q 1188 365 1174 365 q 1239 347 1204 365 q 1267 333 1257 338 q 1276 329 1276 329 q 1296 322 1288 322 q 1310 310 1306 318 l 1310 311 q 1321 307 1317 311 q 1333 300 1325 303 q 1343 269 1349 276 q 1351 265 1349 268 q 1356 258 1353 261 m 256 476 l 261 471 q 258 463 258 469 q 256 453 257 457 l 257 443 l 257 438 q 255 429 256 435 q 249 414 254 424 q 256 400 256 407 q 252 396 256 400 q 247 379 249 392 q 244 367 244 372 q 243 358 243 363 l 240 358 l 240 353 l 236 350 q 233 326 235 335 q 228 313 231 318 l 228 310 q 207 258 207 268 q 197 236 203 254 q 178 235 196 235 l 176 236 q 156 263 167 238 q 146 283 150 274 q 136 303 142 293 q 133 312 136 304 q 124 331 131 319 q 113 356 115 347 q 110 367 110 364 q 96 404 108 367 l 86 421 l 86 400 q 85 365 86 390 q 76 300 83 340 l 76 286 l 74 279 l 74 269 q 69 231 74 260 l 67 226 l 67 224 q 65 214 65 222 q 64 200 65 201 l 60 196 l 54 194 l 54 190 l 50 194 l 42 194 q 39 200 42 200 l 35 206 l 38 206 l 33 207 q 26 228 26 218 q 28 255 26 243 q 33 282 29 267 l 33 292 q 35 330 33 315 q 39 353 38 344 l 39 360 q 40 370 39 365 q 42 379 42 375 l 42 388 q 42 414 49 403 q 46 426 46 419 l 42 429 l 44 467 l 42 471 l 42 497 q 47 525 42 514 l 46 532 q 49 538 47 535 q 50 549 50 542 l 50 550 l 54 557 q 57 569 54 567 l 58 574 l 58 575 q 61 578 60 576 q 65 581 63 581 q 68 578 65 581 q 74 576 71 576 l 82 564 q 92 546 85 558 q 106 510 99 533 q 119 466 115 482 q 125 446 124 450 l 133 443 l 132 439 q 135 424 133 432 q 143 404 136 417 l 142 399 l 143 396 q 150 380 146 389 q 157 360 154 371 q 165 342 161 351 q 176 322 169 332 q 188 349 188 333 q 194 364 194 349 q 201 379 201 375 l 201 400 l 207 396 l 207 410 q 209 419 208 417 q 210 419 210 422 l 210 426 q 215 473 214 450 q 217 513 217 496 q 214 524 217 515 q 210 536 211 533 l 210 542 q 208 552 210 547 q 203 564 206 557 q 199 578 201 572 q 196 588 197 583 q 192 591 194 589 q 188 599 190 593 q 184 608 185 606 q 182 613 183 610 l 178 613 q 176 625 176 614 q 177 633 176 629 q 178 643 178 636 l 176 647 q 181 653 178 650 q 183 660 183 657 l 194 663 q 199 658 196 661 q 210 649 203 656 q 218 640 214 644 q 222 635 222 635 q 224 625 222 632 q 232 606 225 618 q 241 582 239 590 q 246 568 243 574 q 249 552 249 563 q 256 536 250 542 l 256 476 m 340 444 l 335 444 l 338 451 l 340 451 l 343 464 l 349 460 l 351 464 q 362 455 354 460 q 379 444 369 450 q 397 434 390 439 q 407 426 404 429 l 413 426 q 417 417 414 422 q 425 404 421 411 q 431 392 428 397 q 435 383 435 386 q 440 369 438 376 q 447 350 443 363 l 446 349 l 447 347 q 451 330 450 338 q 451 318 451 322 q 449 299 451 307 q 446 286 447 290 q 442 276 446 283 q 438 267 438 268 q 419 250 432 267 l 418 250 l 414 244 l 413 244 q 397 235 404 238 q 379 231 390 233 l 378 226 l 369 226 l 360 231 l 357 231 l 357 226 l 351 226 q 338 228 339 226 q 324 221 333 221 q 317 224 321 221 q 313 228 314 226 l 307 228 l 306 226 l 303 226 l 301 228 l 296 226 q 281 233 289 229 q 263 243 274 238 q 247 287 251 267 q 243 319 243 307 q 244 337 243 328 q 247 354 244 346 l 247 357 q 256 378 247 369 q 260 388 257 383 q 267 397 264 392 l 275 400 l 276 406 l 278 410 l 281 414 q 303 433 300 433 l 306 433 l 314 439 l 318 435 l 324 439 l 326 433 l 328 426 l 335 426 q 338 433 338 429 q 338 436 338 433 q 340 444 339 439 m 1000 496 l 994 497 l 997 501 l 1001 503 l 1006 517 l 1008 513 l 1010 517 q 1040 497 1017 506 q 1068 476 1058 490 l 1072 476 q 1078 467 1075 472 q 1085 454 1081 461 q 1097 435 1092 440 q 1100 422 1097 428 q 1107 404 1103 415 l 1104 399 l 1107 397 q 1110 382 1110 390 q 1111 367 1111 374 q 1104 335 1111 363 q 1101 325 1104 331 q 1097 318 1097 319 q 1079 301 1093 318 l 1078 301 l 1074 297 l 1072 297 q 1040 283 1056 286 l 1039 276 l 1028 276 l 1019 283 l 1019 282 l 1017 276 l 1010 276 q 1008 277 1011 276 q 997 279 1004 278 q 986 274 993 274 q 971 279 976 274 l 968 279 l 968 276 l 961 276 l 961 279 l 956 276 q 942 285 951 282 q 922 293 933 289 q 908 337 911 317 q 904 368 904 357 q 908 406 904 390 l 908 408 q 915 431 908 419 q 920 438 918 436 q 925 446 922 440 l 933 451 l 935 458 l 940 460 l 940 464 q 961 485 958 485 l 967 485 l 974 490 l 978 485 l 982 489 l 986 485 l 989 478 l 994 476 q 997 483 997 479 q 998 485 997 482 q 1000 496 999 489 m 583 485 q 591 482 589 483 q 599 478 593 481 l 599 471 q 613 485 607 490 q 617 465 618 479 q 609 437 617 451 q 585 422 601 422 q 588 422 583 422 q 590 419 592 421 l 576 421 l 574 422 l 560 422 l 560 421 l 556 421 q 549 417 553 419 q 543 415 546 415 l 528 400 l 528 396 q 525 393 525 396 l 525 390 l 524 388 q 525 382 525 386 l 525 379 q 518 360 525 383 q 515 347 517 351 q 514 338 514 342 q 513 322 513 336 q 511 317 513 322 q 506 300 510 313 l 506 297 q 508 291 506 293 q 513 286 510 289 l 508 283 q 486 244 504 254 l 481 247 l 478 244 q 471 268 471 256 l 467 268 q 452 333 457 308 q 447 372 447 358 q 446 378 447 376 l 447 385 q 446 396 446 386 l 442 400 q 440 411 442 403 q 435 435 438 419 q 430 455 432 447 q 428 471 428 463 q 433 485 428 476 q 446 497 439 494 q 451 492 447 496 q 457 483 454 489 l 458 481 l 467 458 q 474 439 467 450 l 474 438 q 474 432 474 435 q 478 422 475 429 q 481 416 481 421 q 485 404 482 411 q 481 399 481 400 l 481 385 l 483 376 l 483 388 l 485 388 q 492 408 485 397 l 492 410 q 496 428 493 418 q 503 453 499 439 q 505 457 503 453 q 514 471 507 461 l 517 471 l 521 472 q 526 476 524 475 q 535 476 528 476 l 536 478 q 556 478 543 486 q 563 483 560 483 l 574 483 q 583 485 582 483 m 1061 415 q 1050 433 1053 426 q 1036 439 1040 433 q 1028 444 1029 442 q 1026 447 1028 446 q 1015 449 1021 447 q 1003 453 1010 451 l 1003 458 l 1001 463 l 1000 460 l 997 458 q 1001 448 1000 453 q 1006 439 1003 443 l 1001 426 l 1003 422 l 1003 418 q 1006 414 1003 417 l 1003 414 q 998 410 1001 413 q 994 406 994 408 l 989 404 q 985 408 989 406 q 982 415 982 410 l 978 415 q 974 413 976 414 q 969 408 972 411 l 967 414 l 963 414 q 949 396 958 396 q 942 383 946 389 q 933 368 939 376 l 933 354 q 951 342 933 351 l 954 343 q 975 342 956 342 q 982 338 976 338 l 986 335 l 989 335 q 1003 340 993 335 l 1006 338 q 1022 342 1007 342 q 1036 346 1029 343 q 1053 349 1043 349 q 1079 374 1079 358 q 1077 384 1079 378 q 1074 397 1075 390 q 1065 409 1069 404 q 1061 415 1061 414 m 401 367 q 393 379 394 372 q 384 383 389 379 q 378 389 379 386 q 372 397 375 394 q 368 400 368 400 q 357 401 363 400 q 343 406 351 401 l 343 410 l 342 414 l 340 414 l 340 410 l 346 388 l 343 378 l 343 372 q 346 367 343 367 l 343 364 q 340 360 342 361 q 338 358 338 360 l 332 354 q 326 359 329 357 q 324 367 324 361 l 318 367 q 315 363 315 367 q 313 360 314 360 l 306 364 q 288 349 299 349 q 284 335 288 342 q 276 319 281 328 l 276 310 q 293 292 276 301 l 296 297 q 318 292 301 292 q 322 290 319 290 l 324 290 l 326 286 l 328 286 q 343 290 335 286 l 346 288 q 363 292 350 292 q 378 298 372 296 q 393 303 385 300 q 422 324 422 315 q 419 335 422 329 q 414 349 417 342 q 401 367 401 363 m 821 36 q 829 63 821 54 q 850 71 838 71 q 871 62 863 71 q 879 38 879 53 q 870 10 879 18 q 850 3 861 3 q 821 36 821 3 m 967 36 q 975 63 967 54 q 996 71 983 71 q 1017 62 1008 71 q 1025 38 1025 53 q 1016 10 1025 18 q 996 3 1007 3 q 967 36 967 3 m 747 4 l 736 4 l 736 93 l 747 93 l 794 22 l 794 93 l 806 93 l 806 4 l 793 4 l 747 74 l 747 4 m 1049 4 l 1038 4 l 1038 93 l 1049 93 l 1049 44 l 1072 69 l 1089 69 l 1063 44 l 1090 4 l 1076 4 l 1056 36 l 1049 29 l 1049 4 m 1181 4 l 1169 4 l 1169 69 l 1181 69 l 1181 60 q 1200 71 1188 71 q 1214 66 1210 71 q 1221 54 1218 61 q 1222 43 1222 53 l 1222 4 l 1211 4 l 1211 42 q 1197 60 1211 60 q 1181 38 1181 60 l 1181 4 m 1279 28 l 1290 26 q 1263 3 1283 3 q 1235 36 1235 3 q 1263 71 1235 71 q 1289 50 1282 71 l 1278 49 q 1263 60 1269 60 q 1246 36 1246 60 q 1263 14 1246 14 q 1279 28 1278 14 m 947 4 l 936 4 l 936 58 l 926 58 l 926 69 l 936 69 l 936 85 q 942 92 939 89 q 954 94 946 94 q 964 93 963 94 l 963 82 q 956 83 961 83 q 947 74 947 83 l 947 69 l 960 69 l 960 58 l 947 58 l 947 4 m 832 36 q 850 14 832 14 q 868 36 868 14 q 850 60 868 60 q 832 36 832 60 m 978 36 q 996 14 978 14 q 1014 36 1014 14 q 996 60 1014 60 q 978 36 978 60 m 1149 4 l 1138 4 l 1138 93 l 1149 93 l 1149 4 m 903 4 l 892 4 l 892 69 l 901 69 l 901 60 q 914 71 908 71 q 926 67 919 71 l 922 57 q 916 59 918 58 q 914 60 914 60 q 904 51 906 60 q 903 38 903 50 l 903 4 m 1314 4 l 1303 4 l 1303 15 l 1314 15 l 1314 4 z "},"I":{"ha":533,"x_min":50,"x_max":533,"o":"m 188 774 l 188 146 l 188 65 q 206 19 188 39 q 260 0 224 0 l 533 0 l 533 24 q 484 35 508 29 q 440 55 460 42 q 408 90 421 68 q 396 153 396 113 l 396 775 l 396 861 q 378 907 396 888 q 324 926 360 926 l 50 926 l 50 903 q 99 890 75 896 q 143 872 124 885 q 175 835 163 858 q 188 774 188 813 z "},"G":{"ha":908,"x_min":43,"x_max":838,"o":"m 464 597 l 464 571 q 524 558 490 567 q 586 531 557 550 q 635 478 615 511 q 656 392 656 444 l 656 247 q 640 202 656 225 q 585 179 624 179 l 458 179 q 417 181 431 179 q 397 188 403 182 q 390 208 390 194 q 389 249 389 222 l 389 718 q 390 765 390 749 q 396 788 389 781 q 422 795 403 794 q 481 796 440 796 l 604 796 q 658 788 631 793 q 709 771 685 783 q 753 738 733 758 q 788 688 774 718 q 804 673 790 675 q 818 688 818 671 q 813 779 815 746 q 810 831 811 813 q 808 856 808 849 q 806 871 807 864 q 795 903 804 892 q 772 921 786 915 q 737 927 757 926 q 693 928 717 928 l 43 928 l 43 904 q 92 891 68 897 q 136 872 117 885 q 168 836 156 860 q 181 774 181 813 l 181 65 q 199 19 181 39 q 253 0 217 0 l 583 0 q 681 15 635 0 q 761 61 726 31 q 817 138 796 92 q 838 247 838 185 l 833 528 q 826 563 835 550 q 807 584 818 576 q 784 594 796 592 q 767 597 772 597 l 464 597 z "},"H":{"ha":1065,"x_min":46,"x_max":1065,"o":"m 696 499 l 719 497 l 719 65 q 738 19 719 39 q 792 0 756 0 l 1065 0 l 1065 24 q 1016 35 1040 29 q 972 55 992 42 q 940 90 953 68 q 928 153 928 113 l 928 861 q 910 907 928 888 q 856 926 892 926 l 582 926 l 582 903 q 632 890 607 896 q 677 870 657 883 q 709 834 697 857 q 719 774 721 811 l 719 681 q 718 634 719 650 q 710 610 717 618 q 686 601 703 603 q 640 600 669 600 l 500 600 q 451 589 468 600 q 427 561 435 578 q 418 524 419 544 q 415 486 417 504 l 392 486 l 392 861 q 374 907 392 888 q 319 926 356 926 l 46 926 l 46 903 q 95 890 71 896 q 139 872 119 885 q 171 835 158 858 q 183 774 183 813 l 183 146 l 183 65 q 201 19 183 39 q 256 0 219 0 l 529 0 l 529 24 q 480 35 504 29 q 436 55 456 42 q 404 90 417 68 q 392 153 392 113 l 392 324 q 392 369 392 353 q 401 392 393 385 q 424 401 408 400 q 467 401 439 401 l 613 401 q 676 426 657 400 q 696 497 694 453 l 696 499 z "}}}
